<svg preserveAspectRatio="none" width="100%" height="100%" overflow="visible" style="display: block;" viewBox="0 0 25.6809 30.3875" fill="none" xmlns="http://www.w3.org/2000/svg">
<path id="Vector" fill-rule="evenodd" clip-rule="evenodd" d="M2.16441 5.75106C4.38359 3.79409 7.29732 2.60465 10.4871 2.60465C17.4346 2.60465 23.0764 8.24633 23.0764 15.1938C23.0764 22.1413 17.4346 27.783 10.4871 27.783C7.29732 27.783 4.38359 26.5935 2.16441 24.6365C1.62611 24.1607 0.801319 24.2111 0.325553 24.7511C-0.150261 25.2894 -0.0981331 26.1125 0.440167 26.5883C3.11944 28.9534 6.63745 30.3875 10.4871 30.3875C18.8724 30.3875 25.6809 23.579 25.6809 15.1938C25.6809 6.80857 18.8724 0 10.4871 0C6.63745 0 3.11944 1.4343 0.440167 3.79932C-0.0981331 4.27509 -0.150261 5.09815 0.325553 5.63645C0.801319 6.17647 1.62611 6.22687 2.16441 5.75106Z" fill="var(--fill-0, white)"/>
</svg>
