<svg preserveAspectRatio="none" width="100%" height="100%" overflow="visible" style="display: block;" viewBox="0 0 37.3333 41.0368" fill="none" xmlns="http://www.w3.org/2000/svg">
<path id="Vector" d="M27.968 17.7645V9.99843C27.968 9.77611 27.8653 9.57073 27.72 9.40823L19.0131 0.265206C18.8506 0.0942192 18.6195 0 18.3888 0H4.58421C2.03569 0 0 2.07825 0 4.62709V30.7307C0 33.2794 2.03569 35.3234 4.58421 35.3234H15.4809C17.5419 38.7445 21.2883 41.0368 25.556 41.0368C32.039 41.0368 37.3333 35.7681 37.3333 29.2767C37.3422 23.6061 33.2705 18.8678 27.968 17.7645ZM19.2442 3.00216L25.0857 9.15152H21.2968C20.1677 9.15152 19.2442 8.21945 19.2442 7.09044V3.00216ZM4.58421 33.6131C2.98494 33.6131 1.71071 32.3297 1.71071 30.7307V4.62709C1.71071 3.0191 2.98494 1.71071 4.58421 1.71071H17.5335V7.09044C17.5335 9.16874 19.2185 10.8622 21.2968 10.8622H26.2573V17.5419C26.0008 17.5335 25.7955 17.5078 25.5732 17.5078C22.5882 17.5078 19.8428 18.654 17.773 20.4502H6.91073C6.44019 20.4502 6.05542 20.8349 6.05542 21.3052C6.05542 21.7757 6.44019 22.1606 6.91073 22.1606H16.1822C15.5748 23.0159 15.0701 23.8713 14.6769 24.8121H6.91073C6.44019 24.8121 6.05542 25.1969 6.05542 25.6674C6.05542 26.1377 6.44019 26.5228 6.91073 26.5228H14.1208C13.9069 27.3781 13.7958 28.3274 13.7958 29.2767C13.7958 30.8161 14.0952 32.3386 14.634 33.6215H4.58421V33.6131ZM25.5647 39.3349C20.0225 39.3349 15.515 34.8273 15.515 29.2852C15.515 23.7429 20.0137 19.2354 25.5647 19.2354C31.1155 19.2354 35.6141 23.7429 35.6141 29.2852C35.6141 34.8273 31.1071 39.3349 25.5647 39.3349Z" fill="var(--fill-0, white)"/>
</svg>
