<svg preserveAspectRatio="none" width="100%" height="100%" overflow="visible" style="display: block;" viewBox="0 0 7.80024 16.8492" fill="none" xmlns="http://www.w3.org/2000/svg">
<path id="Vector" d="M3.63491 3.05354C3.70351 3.07043 3.77174 3.07921 3.84029 3.07921C3.92579 3.07921 4.00279 3.07043 4.07983 3.04477C5.20879 3.13899 6.08986 4.07983 6.08986 5.22601C6.08986 5.69627 6.47444 6.08109 6.94484 6.08109C7.41524 6.08109 7.80024 5.69627 7.80024 5.22601C7.80024 3.34436 6.46604 1.77049 4.69565 1.40261V0.85535C4.69565 0.384764 4.31055 0 3.84029 0C3.36975 0 2.98499 0.384764 2.98499 0.85535V1.43705C1.27428 1.84753 0 3.39574 0 5.22601C0 7.38131 1.75327 9.12613 3.90012 9.12613C5.10613 9.12613 6.08986 10.1095 6.08986 11.3155C6.08986 12.5218 5.11457 13.5139 3.90012 13.5139C2.69411 13.5139 1.71071 12.5302 1.71071 11.3239C1.71071 10.8539 1.32561 10.4685 0.855354 10.4685C0.384767 10.4685 0 10.8539 0 11.3239C0 13.163 1.27428 14.7025 2.98499 15.1132V15.9938C2.98499 16.4647 3.36975 16.8492 3.84029 16.8492C4.31055 16.8492 4.69565 16.4647 4.69565 15.9938V15.1389C6.46604 14.7707 7.80024 13.1971 7.80024 11.3155C7.80024 9.16025 6.04693 7.41543 3.90012 7.41543C2.69411 7.41543 1.71071 6.43174 1.71071 5.22601C1.71071 4.11394 2.54884 3.18187 3.63491 3.05354Z" fill="var(--fill-0, white)"/>
</svg>
