<svg preserveAspectRatio="none" width="100%" height="100%" overflow="visible" style="display: block;" viewBox="0 0 45 40" fill="none" xmlns="http://www.w3.org/2000/svg">
<path id="Vector" d="M43.9453 22.9565C44.2383 22.9275 44.4873 22.8043 44.6924 22.587C44.8975 22.3696 45 22.1159 45 21.8261V17.5217C45 17.2029 44.8975 16.942 44.6924 16.7391C44.4873 16.5362 44.2383 16.4203 43.9453 16.3913L41.5723 16.1304C41.4258 15.6667 41.25 15.2029 41.0449 14.7391C40.8398 14.2754 40.6201 13.8261 40.3857 13.3913L41.9238 11.5217C42.0996 11.3188 42.1802 11.0652 42.1655 10.7609C42.1509 10.4565 42.041 10.2029 41.8359 10L38.7598 6.95652C38.5547 6.75362 38.3057 6.64493 38.0127 6.63043C37.7197 6.61594 37.4707 6.71014 37.2656 6.91304L35.376 8.43478C34.9365 8.17391 34.4824 7.94928 34.0137 7.76087C33.5449 7.57246 33.0615 7.4058 32.5635 7.26087L32.3438 4.86957C32.3145 4.57971 32.1899 4.33333 31.9702 4.13043C31.7505 3.92754 31.4941 3.82609 31.2012 3.82609H27.4219V1.13043C27.4219 0.811594 27.3047 0.543478 27.0703 0.326087C26.8359 0.108696 26.5723 0 26.2793 0C25.957 0 25.686 0.108696 25.4663 0.326087C25.2466 0.543478 25.1367 0.811594 25.1367 1.13043V10.4783H16.875C16.6113 9.49275 16.0986 8.62319 15.3369 7.86957C14.5752 7.11594 13.6816 6.6087 12.6562 6.34783C11.0742 5.91304 9.57275 6.10145 8.15186 6.91304C6.73096 7.72464 5.80078 8.91304 5.36133 10.4783H4.74609C3.42773 10.4783 2.30713 10.9348 1.38428 11.8478C0.461426 12.7609 0 13.8696 0 15.1739V18.1304C0 19.2029 0.322266 20.1594 0.966797 21C1.61133 21.8406 2.44629 22.3913 3.47168 22.6522L11.3818 24.7826L16.084 30.913C16.6699 31.6377 17.373 32.2029 18.1934 32.6087C19.0137 33.0145 19.8926 33.2174 20.8301 33.2174H25.1367V38.8696C25.1367 39.1884 25.2466 39.4565 25.4663 39.6739C25.686 39.8913 25.957 40 26.2793 40C26.5723 40 26.8359 39.8913 27.0703 39.6739C27.3047 39.4565 27.4219 39.1884 27.4219 38.8696V35.4783H31.2012C31.4941 35.4783 31.7505 35.3841 31.9702 35.1957C32.1899 35.0072 32.3145 34.7681 32.3438 34.4783L32.5635 32.087C33.0615 31.942 33.5449 31.7681 34.0137 31.5652C34.4824 31.3623 34.9365 31.1449 35.376 30.913L37.2217 32.4348C37.4561 32.6087 37.7197 32.6884 38.0127 32.6739C38.3057 32.6594 38.5547 32.5507 38.7598 32.3478L41.792 29.3043C42.0264 29.1014 42.1436 28.8551 42.1436 28.5652C42.1436 28.2754 42.0557 28.0145 41.8799 27.7826L40.3418 25.9565C40.6055 25.5217 40.8325 25.0725 41.0229 24.6087C41.2134 24.1449 41.3818 23.6667 41.5283 23.1739L43.9453 22.9565ZM11.1182 8.3913C12.1436 8.3913 13.0151 8.74638 13.7329 9.45652C14.4507 10.1667 14.8096 11.029 14.8096 12.0435C14.8096 13.029 14.4507 13.8841 13.7329 14.6087C13.0151 15.3333 12.1436 15.6957 11.1182 15.6957C10.0928 15.6957 9.22119 15.3333 8.50342 14.6087C7.78564 13.8841 7.42676 13.029 7.42676 12.0435C7.42676 11.029 7.78564 10.1667 8.50342 9.45652C9.22119 8.74638 10.0928 8.3913 11.1182 8.3913ZM25.1367 12.7826V30.9565H20.8301C20.2441 30.9565 19.7021 30.8333 19.2041 30.587C18.7061 30.3406 18.2812 30 17.9297 29.5652L12.9639 23.1304C12.9053 23.0145 12.8247 22.9275 12.7222 22.8696C12.6196 22.8116 12.4951 22.7536 12.3486 22.6957L4.08691 20.4783C3.55957 20.3333 3.12744 20.0435 2.79053 19.6087C2.45361 19.1739 2.28516 18.6812 2.28516 18.1304V15.1739C2.28516 14.5072 2.52686 13.9348 3.01025 13.4565C3.49365 12.9783 4.07227 12.7536 4.74609 12.7826H5.18555C5.36133 14.1159 5.93262 15.2681 6.89941 16.2391C7.86621 17.2101 9.03809 17.7681 10.415 17.913C12.0264 18.1159 13.4839 17.7174 14.7876 16.7174C16.0913 15.7174 16.8457 14.4058 17.0508 12.7826H25.1367ZM27.4219 24.4783V14.8696C27.9199 14.6957 28.4473 14.6087 29.0039 14.6087C29.5605 14.6087 30.1025 14.6957 30.6299 14.8696C31.9775 15.3043 32.9663 16.1449 33.5962 17.3913C34.2261 18.6377 34.3213 19.9275 33.8818 21.2609C33.4131 22.5942 32.5488 23.5725 31.2891 24.1957C30.0293 24.8188 28.7402 24.913 27.4219 24.4783ZM42.7148 18.5217V20.7826L40.5176 21C40.2539 21.029 40.0342 21.1232 39.8584 21.2826C39.6826 21.442 39.5654 21.6522 39.5068 21.913C39.3604 22.5217 39.1626 23.1232 38.9136 23.7174C38.6646 24.3116 38.3496 24.8841 37.9688 25.4348C37.8516 25.6377 37.8003 25.8623 37.8149 26.1087C37.8296 26.3551 37.9102 26.5797 38.0566 26.7826L39.4629 28.4783L37.8809 30.0435L36.2109 28.6522C36.0059 28.5072 35.7788 28.4275 35.5298 28.413C35.2808 28.3986 35.0537 28.4493 34.8486 28.5652C34.292 28.913 33.7134 29.2174 33.1128 29.4783C32.5122 29.7391 31.9043 29.942 31.2891 30.087C31.0254 30.1159 30.813 30.2246 30.6519 30.413C30.4907 30.6014 30.3955 30.8116 30.3662 31.0435L30.1465 33.2174H27.4219V26.8261C27.9492 26.942 28.4839 27 29.0259 27C29.5679 27 30.1025 26.942 30.6299 26.8261C32.6221 26.3913 34.1675 25.3188 35.2661 23.6087C36.3647 21.8986 36.6797 20.058 36.2109 18.087C35.7715 16.1159 34.6948 14.587 32.981 13.5C31.2671 12.413 29.4141 12.087 27.4219 12.5217V6.08696H30.1904L30.3662 8.26087C30.3955 8.52174 30.4907 8.73913 30.6519 8.91304C30.813 9.08696 31.0254 9.2029 31.2891 9.26087C31.9043 9.4058 32.5122 9.60145 33.1128 9.84783C33.7134 10.0942 34.292 10.3913 34.8486 10.7391C35.0537 10.8841 35.2808 10.9493 35.5298 10.9348C35.7788 10.9203 36.0059 10.8406 36.2109 10.6957L37.8809 9.30435L39.5068 10.913L38.1006 12.5652C37.9541 12.7681 37.8735 12.9928 37.8589 13.2391C37.8442 13.4855 37.8955 13.7101 38.0127 13.913C38.3643 14.4638 38.6719 15.0362 38.9355 15.6304C39.1992 16.2246 39.4043 16.8406 39.5508 17.4783C39.6094 17.7101 39.7266 17.9058 39.9023 18.0652C40.0781 18.2246 40.2979 18.3188 40.5615 18.3478L42.7148 18.5217Z" fill="var(--fill-0, white)"/>
</svg>
