<svg preserveAspectRatio="none" width="100%" height="100%" overflow="visible" style="display: block;" viewBox="0 0 36.8662 36.8613" fill="none" xmlns="http://www.w3.org/2000/svg">
<path id="Vector" d="M14.3813 18.5425C14.6825 18.8525 15.1 19.0475 15.5638 19.0562H15.565C15.5688 19.0562 15.575 19.0562 15.58 19.0562C15.9525 19.0562 16.29 18.9062 16.5363 18.6625L18.665 16.5338C18.9075 16.2888 19.0588 15.9512 19.0588 15.5775C19.0588 15.5725 19.0588 15.5675 19.0588 15.5625V15.5638C19.05 15.0988 18.855 14.6825 18.5462 14.3813L17.8413 13.6763C17.9038 13.5354 17.9625 13.3933 18.0175 13.25L19.0138 13.255C19.0425 13.2575 19.075 13.2575 19.1088 13.2575C19.92 13.2575 20.5813 12.62 20.62 11.8188V11.815V8.80625C20.5813 8.00125 19.9188 7.36375 19.1088 7.36375C19.075 7.36375 19.0425 7.365 19.01 7.3675H19.015H18.0187C17.9637 7.2225 17.9038 7.08 17.8413 6.93875L18.55 6.2375C18.8637 5.95875 19.06 5.55375 19.06 5.1025C19.06 4.71 18.9113 4.3525 18.6663 4.0825L18.6675 4.08375L16.54 1.95625C16.2713 1.7125 15.9137 1.56375 15.5212 1.56375C15.07 1.56375 14.665 1.76125 14.3862 2.07375L14.385 2.075L13.68 2.78C13.5392 2.7175 13.3971 2.65875 13.2538 2.60375L13.2588 1.60625C13.2613 1.5775 13.2613 1.545 13.2613 1.51125C13.2613 0.7 12.6238 0.03875 11.8225 0H11.8188H8.80875C8.00375 0.03875 7.36625 0.70125 7.36625 1.51125C7.36625 1.545 7.3675 1.5775 7.37 1.61V1.605V2.60125C7.225 2.65625 7.08375 2.715 6.94125 2.77875L6.24 2.07C5.96125 1.755 5.55625 1.55625 5.105 1.55625C4.7125 1.55625 4.35375 1.70625 4.085 1.9525L4.08625 1.95125L1.95875 4.07875C1.715 4.3275 1.56375 4.66875 1.56375 5.045C1.56375 5.1225 1.57 5.1975 1.5825 5.27125L1.58125 5.26375C1.6425 5.64625 1.82 5.97875 2.07625 6.2325L2.78125 6.93625C2.7175 7.07875 2.6575 7.22125 2.6025 7.3675L1.60625 7.3625C1.5775 7.36 1.54375 7.36 1.51125 7.36C0.70125 7.36 0.04 7.9975 0 8.7975V8.80125V11.8113C0.03875 12.6163 0.70125 13.2537 1.51125 13.2537C1.545 13.2537 1.5775 13.2525 1.61 13.25H1.605H2.60125C2.65625 13.395 2.71625 13.5363 2.77875 13.6788L2.07125 14.38C1.76125 14.6825 1.5675 15.1012 1.56 15.565V15.5662C1.56 15.5712 1.56 15.5763 1.56 15.5813C1.56 15.9525 1.71 16.2887 1.95375 16.5325L4.08125 18.6612C4.32625 18.9037 4.66375 19.0537 5.0375 19.0537C5.0425 19.0537 5.0475 19.0537 5.05125 19.0537C5.51625 19.045 5.9325 18.85 6.23375 18.5412L6.93875 17.8375C7.08125 17.9012 7.22375 17.96 7.36875 18.0163L7.36375 19.0113C7.36125 19.04 7.36125 19.0725 7.36125 19.1063C7.36125 19.9175 7.99875 20.5788 8.8 20.6175H8.80375H11.8125C12.6175 20.5788 13.255 19.9163 13.255 19.1063C13.255 19.0725 13.2537 19.04 13.2512 19.0075V19.0125V18.015C13.3962 17.96 13.5388 17.9 13.68 17.8375L14.3813 18.5425ZM11.3775 18.7437H9.24125L9.24875 17.4025C9.24875 17.38 9.2375 17.3613 9.23625 17.3388C9.2175 17.2075 9.185 17.0887 9.14 16.9762L9.14375 16.9862C9.07 16.8287 8.9525 16.7025 8.80625 16.62L8.8025 16.6175C8.74875 16.5813 8.68625 16.5488 8.62125 16.5238L8.615 16.5212C8.5975 16.515 8.585 16.5013 8.56625 16.4963C8.035 16.3438 7.5725 16.1475 7.14125 15.9025L7.17375 15.9187C7.05 15.8512 6.90125 15.8113 6.74375 15.8113H6.7425C6.72 15.8113 6.7025 15.8162 6.67875 15.8162C6.4475 15.8237 6.24 15.9163 6.0825 16.0625L6.05125 16.075L5.145 17.0737L3.5875 15.5163L4.54125 14.5725L4.555 14.5387C4.69875 14.385 4.79125 14.18 4.80125 13.955V13.9525C4.8025 13.9262 4.8075 13.9063 4.8075 13.88V13.8762C4.8075 13.7187 4.7675 13.57 4.6975 13.4412L4.7 13.4462C4.47125 13.0475 4.275 12.5875 4.13375 12.1025L4.1225 12.0575C4.1175 12.0387 4.1025 12.025 4.09625 12.0062C4.04375 11.8875 3.9825 11.785 3.91 11.69L3.9125 11.6937C3.87125 11.6512 3.82625 11.6125 3.7775 11.5787L3.775 11.5763C3.7325 11.5413 3.68625 11.51 3.63625 11.4825L3.63125 11.48C3.58375 11.4575 3.52625 11.4388 3.4675 11.425L3.46125 11.4237C3.40875 11.4062 3.3475 11.3937 3.28375 11.3875H3.28C3.25875 11.3862 3.24125 11.375 3.22 11.375H1.87375V9.23875L3.22 9.245C3.41 9.24 3.585 9.1775 3.72875 9.075L3.72625 9.0775C3.75625 9.06 3.7825 9.0425 3.80625 9.02375L3.80375 9.025C3.94 8.915 4.0425 8.7675 4.0975 8.6L4.09875 8.59375C4.1025 8.58125 4.11625 8.575 4.12 8.5625C4.2725 8.0325 4.46875 7.57125 4.71375 7.14125L4.6975 7.1725C4.765 7.0475 4.805 6.89875 4.805 6.74125C4.80625 6.715 4.8 6.695 4.79875 6.66875C4.78875 6.44125 4.69875 6.2375 4.555 6.0825L4.54125 6.04875L3.58875 5.09625L5.09875 3.58625L6.0425 4.54C6.065 4.5625 6.10125 4.555 6.125 4.575C6.275 4.71125 6.47125 4.8 6.6875 4.8125H6.69L6.71125 4.81875C6.88 4.81875 7.0375 4.77375 7.17375 4.69625L7.16875 4.69875C7.56625 4.47 8.02625 4.27375 8.51125 4.13375L8.55625 4.1225C8.575 4.1175 8.58875 4.1025 8.6075 4.09625C8.675 4.07 8.7325 4.04 8.78625 4.005L8.7825 4.0075C8.93 3.91125 9.05 3.785 9.135 3.635L9.1375 3.63C9.15875 3.58375 9.1775 3.52875 9.19 3.4725L9.19125 3.46625C9.20875 3.4125 9.2225 3.34875 9.22875 3.2825V3.27875C9.23 3.25875 9.24125 3.24 9.24125 3.22V1.87375H11.3788L11.3713 3.215C11.3713 3.23625 11.3825 3.255 11.3838 3.27625C11.39 3.345 11.4025 3.40875 11.4225 3.47L11.4213 3.46375C11.4363 3.52625 11.455 3.58125 11.4775 3.63375L11.475 3.6275C11.505 3.68375 11.5375 3.7325 11.575 3.7775L11.5737 3.77625C11.6087 3.82625 11.6462 3.87125 11.6887 3.91125C11.73 3.945 11.775 3.9775 11.8238 4.00375L11.8288 4.00625C11.8788 4.04 11.9375 4.07 11.9975 4.09375L12.0038 4.09625C12.0225 4.1025 12.0363 4.1175 12.0563 4.1225C12.5863 4.275 13.0462 4.47 13.4762 4.71375L13.4438 4.6975C13.57 4.7725 13.7213 4.8175 13.8838 4.8175C14.1175 4.8175 14.33 4.725 14.4863 4.57375C14.51 4.555 14.5438 4.5625 14.565 4.54125L15.5175 3.58875L17.0287 5.1L16.075 6.04375L16.0613 6.0775C15.9175 6.23125 15.8262 6.435 15.8162 6.65875V6.66125C15.815 6.6875 15.8088 6.70875 15.81 6.735V6.7375C15.81 6.895 15.85 7.0425 15.92 7.1725L15.9175 7.1675C16.145 7.56625 16.3425 8.0275 16.4837 8.51375L16.495 8.56C16.4988 8.57375 16.5138 8.58 16.5175 8.5925C16.575 8.765 16.6775 8.91 16.81 9.01875L16.8113 9.02C16.8338 9.0375 16.8613 9.055 16.8875 9.0725L16.8913 9.075C17.0313 9.17625 17.2063 9.2375 17.395 9.2425H18.7425V11.3787L17.3962 11.3725C17.3762 11.3725 17.36 11.3825 17.3412 11.3838C17.2662 11.39 17.1975 11.405 17.1313 11.4262L17.1375 11.425C17.0813 11.4388 17.0325 11.455 16.9863 11.4762L16.9925 11.4738C16.9313 11.5063 16.8788 11.5425 16.83 11.5837L16.8312 11.5825C16.785 11.615 16.745 11.65 16.7075 11.6887C16.6725 11.7312 16.6387 11.7787 16.6112 11.83L16.6088 11.835C16.5763 11.8837 16.5475 11.94 16.5238 11.9987L16.5212 12.005C16.515 12.0238 16.5 12.0375 16.4938 12.0575C16.3425 12.5862 16.1463 13.0462 15.9025 13.4762L15.9188 13.445C15.8513 13.57 15.8113 13.7175 15.8113 13.875V13.8787C15.81 13.9025 15.815 13.9212 15.8162 13.945C15.825 14.175 15.9163 14.3812 16.0613 14.5362L16.075 14.5687L17.0737 15.4737L15.5175 17.0312L14.5713 16.0775L14.54 16.065C14.3862 15.92 14.18 15.8275 13.9525 15.8187H13.9513C13.9263 15.8175 13.9075 15.8125 13.8825 15.8125C13.7237 15.8125 13.575 15.8525 13.445 15.9225L13.45 15.92C13.0513 16.1475 12.59 16.345 12.1038 16.4862L12.0575 16.4975C12.0362 16.5037 12.0225 16.5187 12.0012 16.5262C11.8825 16.58 11.78 16.6413 11.6862 16.7138L11.69 16.7113C11.6513 16.75 11.6162 16.7913 11.5837 16.8363L11.5813 16.8387C11.5438 16.8837 11.5087 16.935 11.48 16.9888L11.4775 16.9937C11.4575 17.0387 11.4388 17.0925 11.4263 17.1475L11.425 17.1537C11.4063 17.2087 11.3938 17.2738 11.3875 17.34V17.3438C11.3863 17.3638 11.3762 17.3812 11.3762 17.4012L11.3775 18.7437ZM13.9263 10.3088C13.9263 8.31125 12.3075 6.6925 10.31 6.6925C8.3125 6.6925 6.69375 8.31125 6.69375 10.3088C6.69375 12.3063 8.3125 13.925 10.31 13.925C12.3063 13.9225 13.9225 12.305 13.9263 10.31V10.3088ZM10.31 12.05C9.34875 12.05 8.56875 11.2713 8.56875 10.3088C8.56875 9.34625 9.3475 8.5675 10.31 8.5675C11.2713 8.5675 12.0513 9.34625 12.0513 10.3088C12.05 11.27 11.2713 12.0475 10.3113 12.05H10.31ZM35.2175 22.9037H34.1213C34.0538 22.725 33.98 22.5488 33.9012 22.375L34.68 21.605C35.0038 21.3187 35.2063 20.9025 35.2063 20.4388C35.2063 20.0375 35.055 19.6725 34.8063 19.3962L34.8075 19.3975L32.5462 17.1362C32.295 16.8887 31.95 16.7362 31.5688 16.7362C31.5638 16.7362 31.5587 16.7362 31.5537 16.7362C31.0762 16.7462 30.6488 16.945 30.34 17.2625L29.5638 18.0387C29.3904 17.9604 29.2154 17.8879 29.0388 17.8213L29.0438 16.7237C29.0463 16.6937 29.0475 16.6575 29.0475 16.6225C29.0475 15.7938 28.3963 15.1162 27.5788 15.075H27.575H24.3787C23.555 15.1162 22.9037 15.795 22.9037 16.625C22.9037 16.66 22.905 16.695 22.9075 16.73V16.725V17.8213C22.73 17.8888 22.555 17.9613 22.3825 18.04L21.6088 17.2612C21.3 16.9437 20.8712 16.7437 20.3962 16.7337H20.3938C20.3888 16.7337 20.3837 16.7337 20.3787 16.7337C19.9987 16.7337 19.655 16.8862 19.4038 17.1337L17.1413 19.395C16.8938 19.6688 16.7425 20.0325 16.7425 20.4325C16.7425 20.8963 16.9463 21.3125 17.2688 21.5963L17.27 21.5975L18.0462 22.3738C17.9675 22.5475 17.8938 22.7237 17.8263 22.9037L16.73 22.8988C16.7 22.8963 16.6637 22.895 16.6287 22.895C15.8 22.895 15.1225 23.5463 15.0813 24.3638V24.3675V27.5663C15.1225 28.3888 15.8 29.0388 16.6287 29.0388C16.665 29.0388 16.7 29.0375 16.735 29.035H16.73H17.8263C17.8938 29.2125 17.9663 29.3875 18.045 29.5613L17.2675 30.3337C16.9487 30.6437 16.7487 31.0738 16.74 31.55C16.74 31.555 16.74 31.5613 16.74 31.5675C16.74 31.9475 16.8925 32.2913 17.14 32.54L19.4012 34.8013C19.6512 35.05 19.9975 35.2038 20.3787 35.2038C20.3825 35.2038 20.3875 35.2038 20.3913 35.2038C20.87 35.1938 21.3 34.9913 21.6088 34.6725L22.3813 33.8988C22.5563 33.9788 22.7325 34.0513 22.9125 34.1188L22.9075 35.2138C22.905 35.2438 22.9037 35.28 22.9037 35.315C22.9037 36.1438 23.555 36.82 24.3725 36.8613H24.3762H27.5725C28.3963 36.82 29.0475 36.1425 29.0475 35.3125C29.0475 35.2775 29.0463 35.2425 29.0438 35.2088V35.2138V34.1163C29.2213 34.0488 29.3962 33.9762 29.5712 33.8975L30.345 34.68C30.655 34.995 31.0825 35.1925 31.5563 35.2025H31.565H31.57C31.95 35.2025 32.295 35.05 32.5462 34.8025L34.8025 32.5438C35.0525 32.2938 35.2075 31.9475 35.2075 31.565V31.56C35.2 31.08 35 30.6475 34.6825 30.335L33.905 29.5575C33.9837 29.385 34.055 29.2113 34.1213 29.0338L35.2188 29.0388C35.2488 29.0413 35.285 29.0425 35.32 29.0425C36.1487 29.0425 36.825 28.3912 36.8662 27.5737V27.57V24.3738C36.825 23.5513 36.1487 22.9 35.32 22.9C35.2837 22.9 35.2487 22.9012 35.2137 22.9037H35.2188H35.2175ZM34.99 27.1638L33.5 27.1562C33.4825 27.1562 33.4687 27.165 33.4525 27.1663C33.3737 27.1725 33.3013 27.1875 33.2325 27.2113L33.2388 27.21C33.07 27.2663 32.9263 27.3575 32.8088 27.475C32.775 27.5163 32.7425 27.5625 32.715 27.6113L32.7125 27.6163C32.68 27.6663 32.65 27.7225 32.6263 27.7825L32.6238 27.7888C32.6163 27.8088 32.6013 27.8238 32.595 27.8438C32.435 28.41 32.225 28.9025 31.9625 29.3612L31.98 29.3288C31.9125 29.4525 31.8725 29.6013 31.8725 29.7588C31.8725 29.7613 31.8725 29.7638 31.8725 29.7663C31.8725 29.785 31.8763 29.8 31.8775 29.82C31.8838 30.0525 31.9762 30.2625 32.125 30.42L32.1388 30.4525L33.1912 31.505L31.5038 33.1925L30.4613 32.14C30.4513 32.13 30.4363 32.135 30.4263 32.125C30.2725 31.9813 30.0688 31.89 29.8425 31.88H29.84C29.815 31.8788 29.795 31.8738 29.77 31.8738C29.7675 31.8738 29.7663 31.8738 29.7638 31.8738C29.6075 31.8738 29.46 31.9137 29.3325 31.9837L29.3375 31.9813C28.9113 32.2238 28.4163 32.435 27.8975 32.5863L27.8475 32.5988C27.8262 32.605 27.8125 32.62 27.7925 32.6275C27.73 32.6525 27.6763 32.68 27.625 32.7138L27.6287 32.7113C27.3775 32.8713 27.2062 33.1363 27.175 33.4425V33.4463C27.1737 33.465 27.1638 33.4813 27.1638 33.5013V34.99H24.7763L24.7837 33.505C24.7837 33.485 24.7738 33.4675 24.7725 33.4475C24.7663 33.3788 24.7538 33.3163 24.7338 33.2563L24.735 33.2625C24.685 33.0288 24.5387 32.8362 24.3412 32.725L24.3375 32.7225C24.2825 32.685 24.2212 32.6525 24.155 32.6275L24.1488 32.625C24.1313 32.6188 24.1188 32.605 24.1 32.6C23.5325 32.4387 23.0375 32.2275 22.5775 31.965L22.6113 31.9825C22.4875 31.9163 22.3413 31.8775 22.185 31.8775H22.1825C22.1525 31.8788 22.1225 31.8813 22.0938 31.885H22.0975C21.875 31.8963 21.675 31.985 21.5225 32.125L21.5238 32.1238C21.5125 32.1338 21.4963 32.1287 21.485 32.14L20.4338 33.1925L18.7463 31.505L19.8013 30.46C19.8113 30.45 19.8075 30.4338 19.8162 30.4238C19.9587 30.27 20.05 30.0675 20.06 29.8438V29.8413C20.0613 29.815 20.0675 29.7938 20.0662 29.7675V29.765C20.0662 29.6075 20.0262 29.46 19.9562 29.33L19.9588 29.335C19.715 28.9088 19.505 28.4163 19.3538 27.8975L19.3412 27.8488C19.3362 27.8288 19.3212 27.8163 19.315 27.7975C19.2887 27.7313 19.2587 27.6738 19.2237 27.62L19.2262 27.6238C19.1975 27.5713 19.1675 27.5263 19.1325 27.485L19.1338 27.4862C19.0088 27.3437 18.8387 27.2425 18.6462 27.2063L18.6413 27.205C18.6075 27.195 18.5663 27.1863 18.5238 27.1813H18.5188C18.4913 27.1788 18.4675 27.165 18.44 27.165H16.9513V24.7775L18.44 24.785C18.6775 24.7775 18.8912 24.6813 19.0487 24.5288C19.1137 24.4638 19.1675 24.3863 19.2062 24.3013L19.2088 24.2962C19.25 24.2275 19.32 24.1825 19.3425 24.1012C19.5063 23.5325 19.7163 23.0387 19.9775 22.5775L19.96 22.6113C20.0288 22.4863 20.0688 22.3375 20.0688 22.18C20.07 22.1563 20.065 22.1375 20.0638 22.1138C20.0563 21.8825 19.9637 21.675 19.8162 21.5187L19.805 21.49L18.7525 20.435L20.44 18.7475L21.485 19.8025C21.5075 19.825 21.5413 19.8163 21.565 19.8363C21.7188 19.98 21.9238 20.0713 22.1488 20.0813H22.1513C22.32 20.0813 22.4788 20.0363 22.615 19.9575L22.61 19.96C23.0362 19.715 23.53 19.505 24.0487 19.355L24.0963 19.3425C24.115 19.3375 24.1288 19.3225 24.1475 19.3162C24.2138 19.2912 24.27 19.2612 24.3225 19.2262L24.3188 19.2288C24.5263 19.1175 24.6763 18.925 24.7288 18.695L24.73 18.69C24.7487 18.6338 24.7625 18.5687 24.7688 18.5012V18.4975C24.77 18.4775 24.78 18.4612 24.78 18.4412V16.9525H27.1675L27.16 18.4375C27.16 18.4575 27.17 18.4725 27.1712 18.4925C27.1787 18.5738 27.195 18.6488 27.22 18.72L27.2175 18.7137C27.2275 18.7525 27.2388 18.7837 27.2513 18.815L27.2487 18.81C27.3562 19.0675 27.5713 19.2638 27.8363 19.3425L27.8425 19.3438C28.41 19.5062 28.9025 19.7162 29.3638 19.9775L29.33 19.96C29.4613 20.035 29.6188 20.08 29.7875 20.08C30.0138 20.07 30.2187 19.98 30.3737 19.8363C30.3975 19.8175 30.4313 19.825 30.4538 19.8037L31.5063 18.7513L33.1937 20.4388L32.1388 21.4825L32.125 21.515C31.98 21.6687 31.8887 21.8738 31.8787 22.1V22.1025C31.8775 22.1275 31.8725 22.1475 31.8725 22.1725V22.1775C31.8725 22.335 31.9125 22.4837 31.9825 22.6125L31.98 22.6075C32.225 23.035 32.4363 23.5287 32.5863 24.0487L32.5975 24.0963C32.6012 24.1113 32.6175 24.1175 32.6213 24.1313C32.6788 24.3025 32.78 24.4475 32.9125 24.555L32.9137 24.5563C32.9375 24.5738 32.9637 24.5925 32.9912 24.6087L32.995 24.6113C33.1362 24.7125 33.31 24.775 33.4987 24.78H33.5H34.9888L34.99 27.1638ZM25.9713 22.1863C23.8825 22.1863 22.1875 23.88 22.1875 25.9688C22.1875 28.0575 23.8813 29.7513 25.97 29.7513C28.0588 29.7513 29.7525 28.0588 29.7525 25.97C29.75 23.8813 28.0588 22.1888 25.9713 22.1863ZM25.9713 27.8775C24.9175 27.8775 24.0625 27.0238 24.0625 25.97C24.0625 24.9163 24.9163 24.0625 25.97 24.0625C27.0238 24.0625 27.8775 24.9163 27.8775 25.97C27.875 27.0225 27.0225 27.8763 25.9713 27.8775Z" fill="var(--fill-0, white)"/>
</svg>
