<svg xmlns="http://www.w3.org/2000/svg" viewBox="0 0 88 80" width="88" height="80" fill="none" preserveAspectRatio="xMidYMid meet">
  <g id="02">
    <path d="M18.2842 80C12.521 80 8.08436 78.9025 4.97411 76.7076C1.86386 74.4799 0.285869 71.3186 0.24013 67.2236C0.148652 61.3923 0.0800434 55.3972 0.0343043 49.2383C-0.0114348 43.0794 -0.0114348 36.9206 0.0343043 30.7617C0.0800434 24.6028 0.148652 18.6077 0.24013 12.7764C0.285869 8.64865 1.86386 5.48731 4.97411 3.29238C8.08436 1.09746 12.521 0 18.2842 0C24.0015 0 28.4153 1.09746 31.5256 3.29238C34.6358 5.48731 36.2367 8.64865 36.3282 12.7764C36.4197 17.1663 36.4883 21.6544 36.534 26.2408C36.6255 30.8272 36.6712 35.43 36.6712 40.0491C36.6712 44.6683 36.6255 49.2711 36.534 53.8575C36.4883 58.4111 36.4197 62.8665 36.3282 67.2236C36.2367 71.3186 34.6358 74.4799 31.5256 76.7076C28.4153 78.9025 24.0015 80 18.2842 80ZM18.2842 74.398C24.093 74.398 27.066 72.3342 27.2033 68.2064C27.4319 61.3595 27.5692 54.6274 27.6149 48.0098C27.6606 41.3595 27.6606 34.9713 27.6149 28.8452C27.5692 22.7191 27.4319 17.0352 27.2033 11.7936C27.066 7.63309 24.093 5.55283 18.2842 5.55283C12.4753 5.55283 9.50227 7.63309 9.36506 11.7936C9.22784 16.8059 9.13636 21.8018 9.09062 26.7813C9.04488 31.7281 9.02201 36.6093 9.02201 41.4251C9.02201 46.2408 9.04488 50.8927 9.09062 55.3808C9.13636 59.869 9.22784 64.1441 9.36506 68.2064C9.50227 72.3342 12.4753 74.398 18.2842 74.398Z" fill="#090a0e"/>
    <path d="M51.5003 79.312C51.4546 78.1982 51.4088 77.2482 51.3631 76.4619C51.3631 75.6757 51.3402 74.955 51.2945 74.2998C51.2945 73.6118 51.2945 72.8747 51.2945 72.0885C51.2945 71.2695 51.2945 70.2867 51.2945 69.1401C51.2945 67.9935 51.3173 66.5192 51.3631 64.7174C51.4546 60.1638 52.1406 56.4292 53.4213 53.5135C54.702 50.5651 56.3944 48.1409 58.4984 46.2408C60.6481 44.3407 63.0723 42.7027 65.7709 41.3268L71.7398 37.9853C74.5756 36.249 76.4052 34.4636 77.2285 32.629C78.0518 30.7617 78.532 28.7961 78.6692 26.7322C78.8522 24.2752 78.9437 21.8182 78.9437 19.3612C78.9437 16.8714 78.8522 14.398 78.6692 11.941C78.532 9.71335 77.7316 8.09173 76.2679 7.07617C74.85 6.06061 72.4945 5.55283 69.2013 5.55283C66.1368 5.55283 63.8956 6.06061 62.4776 7.07617C61.1055 8.09173 60.3737 9.71335 60.2822 11.941C60.2364 14.5946 60.2136 17.2645 60.2136 19.9509C60.2136 22.6044 60.2822 25.2744 60.4194 27.9607H51.4317C51.3859 26.1589 51.3173 24.3735 51.2259 22.6044C51.1801 20.8026 51.1572 19.0827 51.1572 17.4447C51.1572 15.8067 51.1801 14.2998 51.2259 12.9238C51.4546 8.30467 52.9639 4.9959 55.754 2.99754C58.5898 0.999181 63.118 0 69.3385 0C73.7294 0 77.2285 0.44226 79.8356 1.32678C82.4885 2.17854 84.4324 3.55446 85.6673 5.45455C86.9023 7.32187 87.6112 9.77887 87.7942 12.8256C87.8399 13.8084 87.8857 14.9222 87.9314 16.1671C87.9771 17.3792 88 18.6405 88 19.9509C88 21.2285 88 22.457 88 23.6364C88 24.8157 87.9543 25.8313 87.8628 26.683C87.6798 29.697 87.0623 32.2523 86.0104 34.3489C85.0041 36.4128 83.5633 38.231 81.688 39.8034C79.8127 41.3432 77.48 42.8829 74.69 44.4226L68.378 47.715C66.5942 48.7633 65.1305 50.172 63.987 51.941C62.8893 53.6773 62.0431 55.6429 61.4485 57.8378C60.8997 60 60.6252 62.2932 60.6252 64.7174V73.4152H87.657V79.312H51.5003Z" fill="#090a0e"/>
  </g>
</svg>
