<svg xmlns="http://www.w3.org/2000/svg" viewBox="0 0 90 80" width="90" height="80" fill="none" preserveAspectRatio="xMidYMid meet">
  <g id="04">
    <path d="M18.2723 80C12.5129 80 8.07913 78.9025 4.9709 76.7076C1.86266 74.4799 0.285684 71.3186 0.239974 67.2236C0.148556 61.3923 0.0799916 55.3972 0.0342821 49.2383C-0.0114274 43.0794 -0.0114274 36.9206 0.0342821 30.7617C0.0799916 24.6028 0.148556 18.6077 0.239974 12.7764C0.285684 8.64865 1.86266 5.48731 4.9709 3.29238C8.07913 1.09746 12.5129 0 18.2723 0C23.986 0 28.397 1.09746 31.5052 3.29238C34.6134 5.48731 36.2133 8.64865 36.3047 12.7764C36.3961 17.1663 36.4647 21.6544 36.5104 26.2408C36.6018 30.8272 36.6475 35.43 36.6475 40.0491C36.6475 44.6683 36.6018 49.2711 36.5104 53.8575C36.4647 58.4111 36.3961 62.8665 36.3047 67.2236C36.2133 71.3186 34.6134 74.4799 31.5052 76.7076C28.397 78.9025 23.986 80 18.2723 80ZM18.2723 74.398C24.0774 74.398 27.0485 72.3341 27.1857 68.2064C27.4142 61.3595 27.5513 54.6274 27.597 48.0098C27.6427 41.3595 27.6427 34.9713 27.597 28.8452C27.5513 22.7191 27.4142 17.0352 27.1857 11.7936C27.0485 7.63309 24.0774 5.55283 18.2723 5.55283C12.4672 5.55283 9.49613 7.63309 9.359 11.7936C9.22187 16.8059 9.13045 21.8018 9.08474 26.7813C9.03903 31.7281 9.01618 36.6093 9.01618 41.4251C9.01618 46.2408 9.03903 50.8927 9.08474 55.3808C9.13045 59.869 9.22187 64.1441 9.359 68.2064C9.49613 72.3341 12.4672 74.398 18.2723 74.398Z" fill="#090a0e"/>
    <path d="M71.7619 79.312V55.2334H47.9016V49.9263L66.6882 0.687963H80.3325V49.3857H90V55.2334H80.3325V79.312H71.7619ZM56.8835 49.3857H71.7619L73.8189 6.58477H71.2134L64.2199 28.1572L56.8835 49.3857Z" fill="#090a0e"/>
  </g>
</svg>
