<svg xmlns="http://www.w3.org/2000/svg" viewBox="0 0 101 80" width="101" height="80" fill="none" preserveAspectRatio="xMidYMid meet">
  <g id="06" transform="translate(-3.12 0.96) scale(1 -1)">
    <path d="M27.12 0.96L27.12 0.96Q20.24 0.96 14.80-2.44Q9.36-5.84 6.24-12.32Q3.12-18.80 3.12-28L3.12-28Q3.12-37.20 6.24-43.68Q9.36-50.16 14.80-53.56Q20.24-56.96 27.12-56.96L27.12-56.96Q34.08-56.96 39.48-53.56Q44.88-50.16 48-43.68Q51.12-37.20 51.12-28L51.12-28Q51.12-18.80 48-12.32Q44.88-5.84 39.48-2.44Q34.08 0.96 27.12 0.96ZM27.12-10L27.12-10Q30.40-10 32.84-11.84Q35.28-13.68 36.68-17.68Q38.08-21.68 38.08-28L38.08-28Q38.08-34.32 36.68-38.32Q35.28-42.32 32.84-44.16Q30.40-46 27.12-46L27.12-46Q23.92-46 21.48-44.16Q19.04-42.32 17.64-38.32Q16.24-34.32 16.24-28L16.24-28Q16.24-21.68 17.64-17.68Q19.04-13.68 21.48-11.84Q23.92-10 27.12-10ZM82.48 0.96L82.48 0.96Q74.80 0.96 69.16-2.24Q63.52-5.44 60.48-11.60Q57.44-17.76 57.44-26.80L57.44-26.80Q57.44-36.48 61.08-43.20Q64.72-49.92 71.16-53.44Q77.60-56.96 86-56.96L86-56.96Q90.48-56.96 94.56-56Q98.64-55.04 101.60-53.12L101.60-53.12L96.80-43.60Q94.48-45.20 91.84-45.80Q89.20-46.40 86.32-46.40L86.32-46.40Q79.04-46.40 74.80-42Q70.56-37.60 70.56-28.96L70.56-28.96Q70.56-27.52 70.60-25.76Q70.64-24 71.04-22.24L71.04-22.24L67.44-25.60Q68.96-28.72 71.36-30.84Q73.76-32.96 77.08-34.04Q80.40-35.12 84.40-35.12L84.40-35.12Q89.84-35.12 94.16-32.96Q98.48-30.80 101.08-26.88Q103.68-22.96 103.68-17.68L103.68-17.68Q103.68-12 100.84-7.80Q98-3.60 93.24-1.32Q88.48 0.96 82.48 0.96ZM81.76-8.72L81.76-8.72Q84.48-8.72 86.60-9.72Q88.72-10.72 89.92-12.64Q91.12-14.56 91.12-17.04L91.12-17.04Q91.12-20.88 88.52-23.16Q85.92-25.44 81.60-25.44L81.60-25.44Q78.72-25.44 76.56-24.36Q74.40-23.28 73.16-21.40Q71.92-19.52 71.92-17.04L71.92-17.04Q71.92-14.64 73.12-12.76Q74.32-10.88 76.48-9.80Q78.64-8.72 81.76-8.72Z" fill="#090a0e"/>
  </g>
</svg>
