<svg xmlns="http://www.w3.org/2000/svg" viewBox="0 0 88 80" width="88" height="80" fill="none" preserveAspectRatio="xMidYMid meet">
  <g id="05">
    <path d="M18.2368 80C12.4886 80 8.06341 78.9025 4.96122 76.7076C1.85903 74.4799 0.285128 71.3186 0.239507 67.2236C0.148266 61.3923 0.0798359 55.3972 0.0342154 49.2383C-0.0114051 43.0794 -0.0114051 36.9206 0.0342154 30.7617C0.0798359 24.6028 0.148266 18.6077 0.239507 12.7764C0.285128 8.64865 1.85903 5.48731 4.96122 3.29238C8.06341 1.09746 12.4886 0 18.2368 0C23.9393 0 28.3417 1.09746 31.4439 3.29238C34.5461 5.48731 36.1428 8.64865 36.234 12.7764C36.3253 17.1663 36.3937 21.6544 36.4393 26.2408C36.5305 30.8272 36.5762 35.43 36.5762 40.0491C36.5762 44.6683 36.5305 49.2711 36.4393 53.8575C36.3937 58.4111 36.3253 62.8665 36.234 67.2236C36.1428 71.3186 34.5461 74.4799 31.4439 76.7076C28.3417 78.9025 23.9393 80 18.2368 80ZM18.2368 74.398C24.0306 74.398 26.9959 72.3341 27.1327 68.2064C27.3608 61.3595 27.4977 54.6274 27.5433 48.0098C27.5889 41.3595 27.5889 34.9713 27.5433 28.8452C27.4977 22.7191 27.3608 17.0352 27.1327 11.7936C26.9959 7.63309 24.0306 5.55283 18.2368 5.55283C12.443 5.55283 9.47764 7.63309 9.34078 11.7936C9.20392 16.8059 9.11268 21.8018 9.06706 26.7813C9.02144 31.7281 8.99863 36.6093 8.99863 41.4251C8.99863 46.2408 9.02144 50.8927 9.06706 55.3808C9.11268 59.869 9.20392 64.1441 9.34078 68.2064C9.47764 72.3341 12.443 74.398 18.2368 74.398Z" fill="#090a0e"/>
    <path d="M69.7062 80C63.2737 80 58.5976 79.0008 55.6779 77.0025C52.8038 74.9713 51.2528 71.6462 51.0246 67.027C50.9334 64.4062 50.8878 61.8837 50.8878 59.4595C50.8878 57.0352 50.9562 54.5946 51.0931 52.1376H60.1259C60.0347 53.8083 59.9663 55.5446 59.9206 57.3464C59.9206 59.1482 59.9206 60.9337 59.9206 62.7027C59.9663 64.439 60.0347 66.1097 60.1259 67.715C60.3084 70.0409 61.1068 71.7445 62.521 72.8255C63.9809 73.8739 66.2847 74.398 69.4325 74.398C72.5803 74.398 74.8385 73.8739 76.2071 72.8255C77.5757 71.7445 78.3513 70.0409 78.5338 67.715C78.8531 63.5545 79.0128 59.5577 79.0128 55.7248C79.0584 51.8919 78.9443 47.846 78.6706 43.5872C78.5794 41.3595 77.8723 39.7379 76.5493 38.7224C75.2263 37.7068 73.1734 37.199 70.3905 37.199C68.4288 37.199 66.7637 37.4611 65.3951 37.9853C64.0265 38.5094 62.9544 39.2629 62.1788 40.2457C61.4033 41.2285 60.9927 42.4079 60.9471 43.7838H52.2564V0.687963H87.0876V6.58477H61.2892V35.6757H63.3422C64.1633 34.5291 65.4863 33.5627 67.3111 32.7764C69.1816 31.9902 71.3714 31.597 73.8805 31.597C78.4881 31.597 81.8869 32.5962 84.0766 34.5946C86.312 36.593 87.5438 39.5577 87.7719 43.4889C87.9088 46.3718 87.9772 49.14 87.9772 51.7936C88.0228 54.4144 88 56.9697 87.9088 59.4595C87.8631 61.9492 87.7719 64.4717 87.635 67.027C87.3613 70.1065 86.5858 72.5962 85.3084 74.4963C84.031 76.3964 82.115 77.7887 79.5602 78.6732C77.0511 79.5577 73.7664 80 69.7062 80Z" fill="#090a0e"/>
  </g>
</svg>
