<svg xmlns="http://www.w3.org/2000/svg" viewBox="0 0 64 80" width="64" height="80" fill="none" preserveAspectRatio="xMidYMid meet">
  <g id="01">
    <path d="M18.3075 80C12.537 80 8.09468 78.9025 4.98046 76.7076C1.86624 74.4799 0.286233 71.3186 0.240436 67.2236C0.148841 61.3923 0.0801455 55.3972 0.0343481 49.2383C-0.0114494 43.0794 -0.0114494 36.9206 0.0343481 30.7617C0.0801455 24.6028 0.148841 18.6077 0.240436 12.7764C0.286233 8.64865 1.86624 5.48731 4.98046 3.29238C8.09468 1.09746 12.537 0 18.3075 0C24.0322 0 28.4516 1.09746 31.5658 3.29238C34.68 5.48731 36.2829 8.64865 36.3745 12.7764C36.4661 17.1663 36.5348 21.6544 36.5806 26.2408C36.6722 30.8272 36.718 35.43 36.718 40.0491C36.718 44.6683 36.6722 49.2711 36.5806 53.8575C36.5348 58.4111 36.4661 62.8665 36.3745 67.2236C36.2829 71.3186 34.68 74.4799 31.5658 76.7076C28.4516 78.9025 24.0322 80 18.3075 80ZM18.3075 74.398C24.1238 74.398 27.1006 72.3341 27.238 68.2064C27.467 61.3595 27.6043 54.6274 27.6501 48.0098C27.6959 41.3595 27.6959 34.9713 27.6501 28.8452C27.6043 22.7191 27.467 17.0352 27.238 11.7936C27.1006 7.63309 24.1238 5.55283 18.3075 5.55283C12.4912 5.55283 9.5144 7.63309 9.37701 11.7936C9.23961 16.8059 9.14802 21.8018 9.10222 26.7813C9.05643 31.7281 9.03353 36.6093 9.03353 41.4251C9.03353 46.2408 9.05643 50.8927 9.10222 55.3808C9.14802 59.869 9.23961 64.1441 9.37701 68.2064C9.5144 72.3341 12.4912 74.398 18.3075 74.398Z" fill="#090a0e"/>
    <path d="M54.8634 79.312V7.86241H50.1921L49.7799 5.20885L56.6495 0.687963H64V79.312H54.8634Z" fill="#090a0e"/>
  </g>
</svg>
