<svg xmlns="http://www.w3.org/2000/svg" viewBox="0 0 87 80" width="87" height="80" fill="none" preserveAspectRatio="xMidYMid meet">
  <g id="03">
    <path d="M18.3192 80C12.545 80 8.09985 78.9025 4.98364 76.7076C1.86743 74.4799 0.286416 71.3186 0.24059 67.2236C0.148937 61.3923 0.0801967 55.3972 0.03437 49.2383C-0.0114567 43.0794 -0.0114567 36.9206 0.03437 30.7617C0.0801967 24.6028 0.148937 18.6077 0.24059 12.7764C0.286416 8.64865 1.86743 5.48731 4.98364 3.29238C8.09985 1.09746 12.545 0 18.3192 0C24.0475 0 28.4698 1.09746 31.586 3.29238C34.7022 5.48731 36.3061 8.64865 36.3978 12.7764C36.4894 17.1663 36.5582 21.6544 36.604 26.2408C36.6956 30.8272 36.7415 35.43 36.7415 40.0491C36.7415 44.6683 36.6956 49.2711 36.604 53.8575C36.5582 58.4111 36.4894 62.8665 36.3978 67.2236C36.3061 71.3186 34.7022 74.4799 31.586 76.7076C28.4698 78.9025 24.0475 80 18.3192 80ZM18.3192 74.398C24.1392 74.398 27.1179 72.3341 27.2554 68.2064C27.4845 61.3595 27.622 54.6274 27.6678 48.0098C27.7136 41.3595 27.7136 34.9713 27.6678 28.8452C27.622 22.7191 27.4845 17.0352 27.2554 11.7936C27.1179 7.63309 24.1392 5.55283 18.3192 5.55283C12.4992 5.55283 9.52048 7.63309 9.383 11.7936C9.24552 16.8059 9.15386 21.8018 9.10804 26.7813C9.06221 31.7281 9.0393 36.6093 9.0393 41.4251C9.0393 46.2408 9.06221 50.8927 9.10804 55.3808C9.15386 59.869 9.24552 64.1441 9.383 68.2064C9.52048 72.3341 12.4992 74.398 18.3192 74.398Z" fill="#090a0e"/>
    <path d="M68.3028 80C61.8412 80 57.144 79.0008 54.2111 77.0025C51.324 74.9713 49.7888 71.6462 49.6055 67.027C49.5597 65.5201 49.5138 64.0295 49.468 62.5553C49.468 61.0811 49.468 59.5086 49.468 57.8378C49.5138 56.1671 49.5597 54.267 49.6055 52.1376H58.6792V67.715C58.6792 70.0409 59.4353 71.7445 60.9476 72.8255C62.5057 73.8739 64.8887 74.398 68.0965 74.398C71.2586 74.398 73.5499 73.8739 74.9705 72.8255C76.437 71.7445 77.1702 70.0409 77.1702 67.715C77.3535 64.439 77.4452 61.0975 77.4452 57.6904C77.4452 54.2834 77.3535 50.9746 77.1702 47.7641C77.0327 45.2744 76.1849 43.407 74.6268 42.1622C73.0687 40.8845 70.3191 40.2457 66.378 40.2457L59.0229 40.2948L58.6792 34.742L76.4141 6.58477H49.6055V0.687963H87L86.8625 6.09336L68.7152 34.4963C74.856 34.6929 79.2553 35.8067 81.9132 37.8378C84.617 39.8362 86.0835 43.1286 86.3126 47.715C86.4043 49.8116 86.473 51.7772 86.5188 53.6118C86.5646 55.4464 86.5876 57.1663 86.5876 58.7715C86.5876 60.344 86.5646 61.8182 86.5188 63.1941C86.473 64.57 86.4043 65.8477 86.3126 67.027C86.0376 71.6462 84.5024 74.9713 81.707 77.0025C78.9116 79.0008 74.4435 80 68.3028 80Z" fill="#090a0e"/>
  </g>
</svg>
