<svg width="65" height="32" viewBox="0 0 65 32" fill="none" xmlns="http://www.w3.org/2000/svg">
<path d="M9.27854 11.9368H6.92262L2.00385 6.90909V11.9368H0.300583V0.237154H2.00385V4.72727L6.52466 0.237154H8.83282L3.19772 5.75494L9.27854 11.9368Z" fill="white"/>
<path d="M12.8048 5.0751H13.6167C14.3171 5.0751 14.8689 4.94862 15.2722 4.69565C15.7603 4.41107 16.0044 3.97892 16.0044 3.39921C16.0044 2.7141 15.7975 2.26614 15.3836 2.05534C15.0971 1.91831 14.5134 1.8498 13.6326 1.8498H12.8048V5.0751ZM18.7265 11.9368H16.8958L15.1767 7.98419C14.9432 7.44664 14.7309 7.10935 14.5399 6.97233C14.3065 6.79315 13.935 6.70356 13.4256 6.70356H12.8048V11.9368H11.1016V0.237154H14.2216C16.5563 0.237154 17.7236 1.29117 17.7236 3.39921C17.7236 4.09486 17.506 4.67457 17.0709 5.13834C16.6358 5.60211 16.0681 5.9025 15.3677 6.03953C15.962 6.15547 16.4024 6.54545 16.6889 7.20949L18.7265 11.9368Z" fill="white"/>
<path d="M27.0111 7.35178L25.085 2.48221L23.1429 7.35178H27.0111ZM30.7041 12H28.8576L27.6478 8.98024H22.4903L21.2646 12H19.434L24.2731 0.205533H26.0082L30.7041 12Z" fill="white"/>
<path d="M39.5081 1.80237H36.2767V11.9368H34.5416V1.80237H31.3261V0.237154H39.5081V1.80237Z" fill="white"/>
<path d="M45.9697 1.59684C44.8661 1.59684 43.9959 2.06061 43.3591 2.98814C42.7754 3.82082 42.4836 4.85375 42.4836 6.08696C42.4836 7.3307 42.7754 8.36891 43.3591 9.20158C43.9959 10.1291 44.8661 10.5929 45.9697 10.5929C47.0734 10.5929 47.9436 10.1291 48.5803 9.20158C49.1534 8.36891 49.4399 7.3307 49.4399 6.08696C49.4399 4.8643 49.1534 3.83136 48.5803 2.98814C47.9436 2.06061 47.0734 1.59684 45.9697 1.59684ZM45.9697 0C47.6677 0 48.9889 0.627141 49.9334 1.88142C50.7718 2.99868 51.1856 4.40053 51.175 6.08696C51.1538 7.93149 50.7187 9.38603 49.8697 10.4506C48.9465 11.61 47.6465 12.1897 45.9697 12.1897C44.3036 12.1897 42.9983 11.61 42.0538 10.4506C41.1836 9.36495 40.7485 7.91041 40.7485 6.08696C40.7485 4.37945 41.1624 2.97233 41.9901 1.86561C42.924 0.621871 44.2505 0 45.9697 0Z" fill="white"/>
<path d="M59.1678 2.02371C58.6372 1.76021 57.9262 1.62846 57.0347 1.62846C55.6551 1.62846 54.9653 2.13439 54.9653 3.14625C54.9653 3.63109 55.3951 4.14229 56.2547 4.67984C56.9658 5.13307 57.5229 5.49144 57.9262 5.75494C58.3294 6.01845 58.5735 6.19236 58.6584 6.27668C59.518 7.02503 59.9478 7.88933 59.9478 8.86957C59.9478 9.96574 59.5233 10.8248 58.6743 11.4466C57.9527 11.9736 57.0878 12.2372 56.0796 12.2372C55.0715 12.2372 54.1482 12.0527 53.3098 11.6838L53.5168 9.92885C54.3127 10.3715 55.1882 10.5929 56.1433 10.5929C57.5547 10.5929 58.2604 9.97628 58.2604 8.74308C58.2604 8.25823 57.8306 7.73123 56.9711 7.16206C56.1964 6.64559 55.6074 6.25033 55.2041 5.97628C54.8115 5.70224 54.5992 5.55468 54.5674 5.5336C53.7184 4.80632 53.2939 4.01054 53.2939 3.14625C53.2939 2.16601 53.676 1.38076 54.44 0.790513C55.1298 0.263504 56 0 57.0506 0C57.9209 0 58.7221 0.137022 59.4543 0.411067L59.1678 2.02371Z" fill="white"/>
<path d="M12.1775 31.7628H10.4743V22.6403L6.86081 31.6838H5.46L1.71918 22.6403V31.7628H0V19.9684H2.29224L6.14449 29.3439L9.8853 19.9684H12.1775V31.7628Z" fill="white"/>
<path d="M20.1646 21.3597C19.0609 21.3597 18.1907 21.8235 17.554 22.751C16.9703 23.5837 16.6785 24.6166 16.6785 25.8498C16.6785 27.0935 16.9703 28.1318 17.554 28.9644C18.1907 29.892 19.0609 30.3557 20.1646 30.3557C21.2683 30.3557 22.1385 29.892 22.7752 28.9644C23.3483 28.1318 23.6348 27.0935 23.6348 25.8498C23.6348 24.6271 23.3483 23.5942 22.7752 22.751C22.1385 21.8235 21.2683 21.3597 20.1646 21.3597ZM20.1646 19.7628C21.8625 19.7628 23.1838 20.39 24.1283 21.6443C24.9666 22.7615 25.3805 24.1634 25.3699 25.8498C25.3487 27.6943 24.9136 29.1489 24.0646 30.2134C23.1413 31.3729 21.8413 31.9526 20.1646 31.9526C18.4985 31.9526 17.1932 31.3729 16.2487 30.2134C15.3785 29.1278 14.9434 27.6733 14.9434 25.8498C14.9434 24.1423 15.3572 22.7352 16.185 21.6285C17.1189 20.3847 18.4454 19.7628 20.1646 19.7628Z" fill="white"/>
<path d="M34.9067 21.5652H31.6753V31.6996H29.9402V21.5652H26.7247V20H34.9067V21.5652Z" fill="white"/>
<path d="M41.3683 21.3597C40.2647 21.3597 39.3945 21.8235 38.7577 22.751C38.174 23.5837 37.8822 24.6166 37.8822 25.8498C37.8822 27.0935 38.174 28.1318 38.7577 28.9644C39.3945 29.892 40.2647 30.3557 41.3683 30.3557C42.472 30.3557 43.3422 29.892 43.9789 28.9644C44.552 28.1318 44.8385 27.0935 44.8385 25.8498C44.8385 24.6271 44.552 23.5942 43.9789 22.751C43.3422 21.8235 42.472 21.3597 41.3683 21.3597ZM41.3683 19.7628C43.0663 19.7628 44.3875 20.39 45.332 21.6443C46.1704 22.7615 46.5842 24.1634 46.5736 25.8498C46.5524 27.6943 46.1173 29.1489 45.2683 30.2134C44.3451 31.3729 43.0451 31.9526 41.3683 31.9526C39.7022 31.9526 38.3969 31.3729 37.4524 30.2134C36.5822 29.1278 36.1471 27.6733 36.1471 25.8498C36.1471 24.1423 36.561 22.7352 37.3887 21.6285C38.3226 20.3847 39.6491 19.7628 41.3683 19.7628Z" fill="white"/>
<path d="M50.9529 24.8379H51.7648C52.4652 24.8379 53.017 24.7115 53.4203 24.4585C53.9084 24.1739 54.1525 23.7418 54.1525 23.1621C54.1525 22.4769 53.9456 22.029 53.5317 21.8182C53.2452 21.6812 52.6615 21.6126 51.7807 21.6126H50.9529V24.8379ZM56.8745 31.6996H55.0439L53.3248 27.747C53.0913 27.2095 52.879 26.8722 52.688 26.7352C52.4546 26.556 52.0831 26.4664 51.5737 26.4664H50.9529V31.6996H49.2497V20H52.3697C54.7043 20 55.8717 21.054 55.8717 23.1621C55.8717 23.8577 55.6541 24.4374 55.219 24.9012C54.7839 25.365 54.2162 25.6653 53.5158 25.8024C54.1101 25.9183 54.5505 26.3083 54.837 26.9723L56.8745 31.6996Z" fill="white"/>
<path d="M64.22 21.7866C63.6894 21.5231 62.9784 21.3913 62.0869 21.3913C60.7074 21.3913 60.0176 21.8972 60.0176 22.9091C60.0176 23.3939 60.4474 23.9051 61.3069 24.4427C62.018 24.8959 62.5751 25.2543 62.9784 25.5178C63.3816 25.7813 63.6257 25.9552 63.7106 26.0395C64.5702 26.7879 65 27.6522 65 28.6324C65 29.7286 64.5755 30.5876 63.7265 31.2095C63.0049 31.7365 62.14 32 61.1318 32C60.1237 32 59.2004 31.8155 58.362 31.4466L58.569 29.6917C59.3649 30.1344 60.2404 30.3557 61.1955 30.3557C62.6069 30.3557 63.3127 29.7391 63.3127 28.5059C63.3127 28.0211 62.8829 27.4941 62.0233 26.9249C61.2486 26.4084 60.6596 26.0132 60.2563 25.7391C59.8637 25.4651 59.6514 25.3175 59.6196 25.2964C58.7706 24.5692 58.3461 23.7734 58.3461 22.9091C58.3461 21.9289 58.7282 21.1436 59.4923 20.5534C60.182 20.0264 61.0522 19.7628 62.1029 19.7628C62.9731 19.7628 63.7743 19.8999 64.5065 20.1739L64.22 21.7866Z" fill="white"/>
</svg>
