<svg preserveAspectRatio="none" width="100%" height="100%" overflow="visible" style="display: block;" viewBox="0 0 13 14" fill="none" xmlns="http://www.w3.org/2000/svg">
<g id="Component 5">
<path id="Vector" d="M6.26087 13.8839C6.43478 14.0387 6.59903 14.0387 6.75362 13.8839L12.8696 7.73214C13.0435 7.57738 13.0435 7.42262 12.8696 7.26786L6.75362 1.11607C6.59903 0.96131 6.43478 0.96131 6.26087 1.11607L6.05797 1.34821C5.90338 1.50298 5.90338 1.66741 6.05797 1.84152L11.2464 7.0067H0.347826C0.115942 7.0067 0 7.12277 0 7.35491V7.64509C0 7.87723 0.115942 7.9933 0.347826 7.9933H11.2464L6.05797 13.1585C5.90338 13.3326 5.90338 13.497 6.05797 13.6518L6.26087 13.8839Z" fill="var(--fill-0, white)"/>
</g>
</svg>
