<svg viewBox="0 0 505.088 126.295" fill="none" xmlns="http://www.w3.org/2000/svg" preserveAspectRatio="xMidYMid meet" overflow="visible" style="display:block;width:100%;height:auto">
<g id="Group 2">
<g id="ERROR 404" filter="url(#filter0_f_0_5)">
<path d="M68.5629 84.1263H30V30.7613H67.4792V40.3533H43.7273V52.2291H64.1376V61.8211H43.7273V74.5343H68.5629V84.1263Z" fill="var(--fill-0, #C91F36)"/>
<path d="M80.8883 30.7613H101.479C115.477 30.7613 123.425 35.2528 123.425 46.4434C123.425 55.7309 117.464 60.0702 110.059 61.2882V61.5927C113.4 62.963 115.477 64.9423 118.458 69.4338L128.121 84.1263H111.684L101.208 66.7694C100.034 64.8662 98.3183 64.2572 95.4284 64.2572H94.5253V84.1263H80.8883V30.7613ZM94.5253 40.3533V55.0458H99.7633C107.079 55.0458 109.427 52.3814 109.427 47.4331C109.427 42.561 105.995 40.3533 99.9439 40.3533H94.5253Z" fill="var(--fill-0, #C91F36)"/>
<path d="M136.274 30.7613H156.865C170.864 30.7613 178.811 35.2528 178.811 46.4434C178.811 55.7309 172.851 60.0702 165.445 61.2882V61.5927C168.786 62.963 170.864 64.9423 173.844 69.4338L183.507 84.1263H167.071L156.594 66.7694C155.42 64.8662 153.705 64.2572 150.815 64.2572H149.911V84.1263H136.274V30.7613ZM149.911 40.3533V55.0458H155.149C162.465 55.0458 164.813 52.3814 164.813 47.4331C164.813 42.561 161.381 40.3533 155.33 40.3533H149.911Z" fill="var(--fill-0, #C91F36)"/>
<path d="M202.679 57.0251C202.679 70.4996 207.375 75.2195 215.051 75.2195C222.276 75.2195 226.701 70.8802 226.701 57.7102C226.701 44.388 221.915 39.6681 214.238 39.6681C207.465 39.6681 202.679 43.779 202.679 57.0251ZM240.971 57.1774C240.971 76.5898 229.682 84.8876 214.238 84.8876C198.434 84.8876 188.5 77.7317 188.5 57.7864C188.5 38.374 199.698 30 215.051 30C230.765 30 240.971 37.3082 240.971 57.1774Z" fill="var(--fill-0, #C91F36)"/>
<path d="M252.427 30.7613H273.018C287.016 30.7613 294.963 35.2528 294.963 46.4434C294.963 55.7309 289.003 60.0702 281.597 61.2882V61.5927C284.939 62.963 287.016 64.9423 289.996 69.4338L299.659 84.1263H283.223L272.747 66.7694C271.573 64.8662 269.857 64.2572 266.967 64.2572H266.064V84.1263H252.427V30.7613ZM266.064 40.3533V55.0458H271.302C278.617 55.0458 280.965 52.3814 280.965 47.4331C280.965 42.561 277.533 40.3533 271.482 40.3533H266.064Z" fill="var(--fill-0, #C91F36)"/>
<path d="M354.215 72.8595H331.908L329.109 64.2572L351.957 33.0451H366.949V63.8004H374.987V72.8595H366.949V84.1263H354.215V72.8595ZM355.751 44.6164H355.389L349.338 54.5129L342.475 63.8004H354.215V56.949L355.751 44.6164Z" fill="var(--fill-0, #C91F36)"/>
<path d="M401.359 84.8876C385.826 84.8876 379.775 76.3614 379.775 58.9283C379.775 40.5055 387.722 32.2838 402.623 32.2838C417.976 32.2838 424.298 40.81 424.298 58.5476C424.298 76.6659 416.08 84.8876 401.359 84.8876ZM393.05 58.5476C393.05 70.2712 395.76 75.4478 402.172 75.4478C409.306 75.4478 411.113 70.4235 411.113 58.9283C411.113 47.2808 408.223 41.7236 401.72 41.7236C394.676 41.7236 393.05 46.9002 393.05 58.5476Z" fill="var(--fill-0, #C91F36)"/>
<path d="M454.316 72.8595H432.009L429.21 64.2572L452.058 33.0451H467.05V63.8004H475.088V72.8595H467.05V84.1263H454.316V72.8595ZM455.851 44.6164H455.49L449.439 54.5129L442.576 63.8004H454.316V56.949L455.851 44.6164Z" fill="var(--fill-0, #C91F36)"/>
</g>
<g id="ERROR 405">
<path d="M68.5629 84.1263H30V30.7613H67.4792V40.3533H43.7273V52.2291H64.1376V61.8211H43.7273V74.5343H68.5629V84.1263Z" fill="var(--fill-0, #F2B395)"/>
<path d="M80.8883 30.7613H101.479C115.477 30.7613 123.425 35.2528 123.425 46.4434C123.425 55.7309 117.464 60.0702 110.059 61.2882V61.5927C113.4 62.963 115.477 64.9423 118.458 69.4338L128.121 84.1263H111.684L101.208 66.7694C100.034 64.8662 98.3183 64.2572 95.4284 64.2572H94.5253V84.1263H80.8883V30.7613ZM94.5253 40.3533V55.0458H99.7633C107.079 55.0458 109.427 52.3814 109.427 47.4331C109.427 42.561 105.995 40.3533 99.9439 40.3533H94.5253Z" fill="var(--fill-0, #F2B395)"/>
<path d="M136.274 30.7613H156.865C170.864 30.7613 178.811 35.2528 178.811 46.4434C178.811 55.7309 172.851 60.0702 165.445 61.2882V61.5927C168.786 62.963 170.864 64.9423 173.844 69.4338L183.507 84.1263H167.071L156.594 66.7694C155.42 64.8662 153.705 64.2572 150.815 64.2572H149.911V84.1263H136.274V30.7613ZM149.911 40.3533V55.0458H155.149C162.465 55.0458 164.813 52.3814 164.813 47.4331C164.813 42.561 161.381 40.3533 155.33 40.3533H149.911Z" fill="var(--fill-0, #F2B395)"/>
<path d="M202.679 57.0251C202.679 70.4996 207.375 75.2195 215.051 75.2195C222.276 75.2195 226.701 70.8802 226.701 57.7102C226.701 44.388 221.915 39.6681 214.238 39.6681C207.465 39.6681 202.679 43.779 202.679 57.0251ZM240.971 57.1774C240.971 76.5898 229.682 84.8876 214.238 84.8876C198.434 84.8876 188.5 77.7317 188.5 57.7864C188.5 38.374 199.698 30 215.051 30C230.765 30 240.971 37.3082 240.971 57.1774Z" fill="var(--fill-0, #F2B395)"/>
<path d="M252.427 30.7613H273.018C287.016 30.7613 294.963 35.2528 294.963 46.4434C294.963 55.7309 289.003 60.0702 281.597 61.2882V61.5927C284.939 62.963 287.016 64.9423 289.996 69.4338L299.659 84.1263H283.223L272.747 66.7694C271.573 64.8662 269.857 64.2572 266.967 64.2572H266.064V84.1263H252.427V30.7613ZM266.064 40.3533V55.0458H271.302C278.617 55.0458 280.965 52.3814 280.965 47.4331C280.965 42.561 277.533 40.3533 271.482 40.3533H266.064Z" fill="var(--fill-0, #F2B395)"/>
<path d="M354.215 72.8595H331.908L329.109 64.2572L351.957 33.0451H366.949V63.8004H374.987V72.8595H366.949V84.1263H354.215V72.8595ZM355.751 44.6164H355.389L349.338 54.5129L342.475 63.8004H354.215V56.949L355.751 44.6164Z" fill="var(--fill-0, #F2B395)"/>
<path d="M401.359 84.8876C385.826 84.8876 379.775 76.3614 379.775 58.9283C379.775 40.5055 387.722 32.2838 402.623 32.2838C417.976 32.2838 424.298 40.81 424.298 58.5476C424.298 76.6659 416.08 84.8876 401.359 84.8876ZM393.05 58.5476C393.05 70.2712 395.76 75.4478 402.172 75.4478C409.306 75.4478 411.113 70.4235 411.113 58.9283C411.113 47.2808 408.223 41.7236 401.72 41.7236C394.676 41.7236 393.05 46.9002 393.05 58.5476Z" fill="var(--fill-0, #F2B395)"/>
<path d="M454.316 72.8595H432.009L429.21 64.2572L452.058 33.0451H467.05V63.8004H475.088V72.8595H467.05V84.1263H454.316V72.8595ZM455.851 44.6164H455.49L449.439 54.5129L442.576 63.8004H454.316V56.949L455.851 44.6164Z" fill="var(--fill-0, #F2B395)"/>
</g>
<g id="page not found // SYSTEM FAILURE 404" filter="url(#filter1_f_0_5)">
<path d="M119.094 105.34V98.6516H122.605C123.361 98.6516 124.007 98.7472 124.544 98.9382C125.088 99.1293 125.507 99.4032 125.799 99.7599C126.092 100.117 126.238 100.54 126.238 101.031C126.238 101.521 126.092 101.945 125.799 102.301C125.507 102.658 125.088 102.932 124.544 103.123C124.007 103.314 123.361 103.41 122.605 103.41H119.972L120.679 102.827V105.34H119.094ZM120.679 102.961L119.972 102.359H122.532C123.231 102.359 123.755 102.244 124.105 102.015C124.462 101.779 124.641 101.451 124.641 101.031C124.641 100.604 124.462 100.276 124.105 100.047C123.755 99.8172 123.231 99.7026 122.532 99.7026H119.972L120.679 99.0911V102.961Z" fill="var(--fill-0, #C91F36)"/>
<path d="M126.186 105.34L130.026 98.6516H131.587L135.439 105.34H133.781L130.477 99.3108H131.111L127.819 105.34H126.186ZM127.953 103.792L128.38 102.817H132.989L133.416 103.792H127.953Z" fill="var(--fill-0, #C91F36)"/>
<path d="M140.393 105.435C139.726 105.435 139.112 105.352 138.552 105.187C137.999 105.015 137.515 104.776 137.101 104.47C136.686 104.158 136.365 103.792 136.138 103.371C135.91 102.951 135.796 102.492 135.796 101.996C135.796 101.499 135.91 101.04 136.138 100.62C136.365 100.199 136.686 99.8363 137.101 99.5306C137.523 99.2185 138.015 98.9796 138.576 98.814C139.137 98.6421 139.751 98.5561 140.417 98.5561C141.14 98.5561 141.791 98.6484 142.368 98.8331C142.953 99.0179 143.445 99.2886 143.843 99.6452L142.843 100.41C142.51 100.148 142.148 99.9573 141.758 99.8363C141.376 99.7089 140.953 99.6452 140.49 99.6452C140.043 99.6452 139.629 99.7026 139.247 99.8172C138.865 99.9319 138.535 100.094 138.259 100.304C137.983 100.515 137.767 100.763 137.613 101.05C137.466 101.336 137.393 101.652 137.393 101.996C137.393 102.333 137.466 102.645 137.613 102.932C137.767 103.218 137.983 103.47 138.259 103.687C138.535 103.897 138.86 104.059 139.234 104.174C139.608 104.289 140.023 104.346 140.478 104.346C140.901 104.346 141.307 104.295 141.697 104.193C142.095 104.085 142.473 103.906 142.831 103.658L143.733 104.585C143.286 104.865 142.766 105.078 142.173 105.225C141.587 105.365 140.994 105.435 140.393 105.435ZM142.234 104.422V101.919H143.733V104.585L142.234 104.422Z" fill="var(--fill-0, #C91F36)"/>
<path d="M147.287 101.432H151.53V102.454H147.287V101.432ZM147.409 104.298H152.225V105.34H145.824V98.6516H152.054V99.693H147.409V104.298Z" fill="var(--fill-0, #C91F36)"/>
<path d="M157.361 105.34V98.6516H158.666L164.018 103.801H163.372V98.6516H164.945V105.34H163.64L158.288 100.19H158.934V105.34H157.361Z" fill="var(--fill-0, #C91F36)"/>
<path d="M171.231 105.435C170.564 105.435 169.951 105.349 169.39 105.177C168.829 105.005 168.341 104.766 167.927 104.461C167.512 104.148 167.191 103.785 166.963 103.371C166.736 102.951 166.622 102.492 166.622 101.996C166.622 101.499 166.736 101.043 166.963 100.629C167.191 100.209 167.512 99.8459 167.927 99.5401C168.341 99.228 168.829 98.986 169.39 98.814C169.951 98.6421 170.56 98.5561 171.219 98.5561C171.885 98.5561 172.495 98.6421 173.047 98.814C173.608 98.986 174.096 99.228 174.51 99.5401C174.925 99.8459 175.246 100.209 175.474 100.629C175.701 101.043 175.815 101.499 175.815 101.996C175.815 102.492 175.701 102.951 175.474 103.371C175.246 103.792 174.925 104.155 174.51 104.461C174.096 104.766 173.608 105.005 173.047 105.177C172.495 105.349 171.889 105.435 171.231 105.435ZM171.219 104.346C171.649 104.346 172.048 104.289 172.413 104.174C172.779 104.059 173.096 103.897 173.364 103.687C173.633 103.47 173.84 103.222 173.986 102.941C174.141 102.655 174.218 102.34 174.218 101.996C174.218 101.652 174.141 101.34 173.986 101.059C173.84 100.773 173.633 100.524 173.364 100.314C173.096 100.097 172.779 99.9319 172.413 99.8172C172.048 99.7026 171.649 99.6452 171.219 99.6452C170.788 99.6452 170.389 99.7026 170.024 99.8172C169.666 99.9319 169.349 100.097 169.073 100.314C168.804 100.524 168.593 100.773 168.439 101.059C168.292 101.34 168.219 101.652 168.219 101.996C168.219 102.333 168.292 102.645 168.439 102.932C168.593 103.218 168.804 103.47 169.073 103.687C169.341 103.897 169.658 104.059 170.024 104.174C170.389 104.289 170.788 104.346 171.219 104.346Z" fill="var(--fill-0, #C91F36)"/>
<path d="M179.107 105.34V99.7026H176.279V98.6516H183.521V99.7026H180.692V105.34H179.107Z" fill="var(--fill-0, #C91F36)"/>
<path d="M189.531 101.728H193.786V102.779H189.531V101.728ZM189.665 105.34H188.08V98.6516H194.31V99.693H189.665V105.34Z" fill="var(--fill-0, #C91F36)"/>
<path d="M199.747 105.435C199.08 105.435 198.467 105.349 197.906 105.177C197.345 105.005 196.857 104.766 196.443 104.461C196.028 104.148 195.707 103.785 195.479 103.371C195.252 102.951 195.138 102.492 195.138 101.996C195.138 101.499 195.252 101.043 195.479 100.629C195.707 100.209 196.028 99.8459 196.443 99.5401C196.857 99.228 197.345 98.986 197.906 98.814C198.467 98.6421 199.076 98.5561 199.735 98.5561C200.401 98.5561 201.011 98.6421 201.563 98.814C202.124 98.986 202.612 99.228 203.026 99.5401C203.441 99.8459 203.762 100.209 203.99 100.629C204.217 101.043 204.331 101.499 204.331 101.996C204.331 102.492 204.217 102.951 203.99 103.371C203.762 103.792 203.441 104.155 203.026 104.461C202.612 104.766 202.124 105.005 201.563 105.177C201.011 105.349 200.405 105.435 199.747 105.435ZM199.735 104.346C200.165 104.346 200.564 104.289 200.929 104.174C201.295 104.059 201.612 103.897 201.88 103.687C202.149 103.47 202.356 103.222 202.502 102.941C202.657 102.655 202.734 102.34 202.734 101.996C202.734 101.652 202.657 101.34 202.502 101.059C202.356 100.773 202.149 100.524 201.88 100.314C201.612 100.097 201.295 99.9319 200.929 99.8172C200.564 99.7026 200.165 99.6452 199.735 99.6452C199.304 99.6452 198.905 99.7026 198.54 99.8172C198.182 99.9319 197.865 100.097 197.589 100.314C197.32 100.524 197.109 100.773 196.955 101.059C196.808 101.34 196.735 101.652 196.735 101.996C196.735 102.333 196.808 102.645 196.955 102.932C197.109 103.218 197.32 103.47 197.589 103.687C197.857 103.897 198.174 104.059 198.54 104.174C198.905 104.289 199.304 104.346 199.735 104.346Z" fill="var(--fill-0, #C91F36)"/>
<path d="M209.681 105.435C208.51 105.435 207.592 105.177 206.925 104.661C206.267 104.145 205.938 103.4 205.938 102.425V98.6516H207.523V102.378C207.523 103.066 207.71 103.566 208.084 103.878C208.466 104.19 209.002 104.346 209.693 104.346C210.384 104.346 210.916 104.19 211.29 103.878C211.664 103.566 211.851 103.066 211.851 102.378V98.6516H213.412V102.425C213.412 103.4 213.078 104.145 212.412 104.661C211.754 105.177 210.843 105.435 209.681 105.435Z" fill="var(--fill-0, #C91F36)"/>
<path d="M215.631 105.34V98.6516H216.936L222.288 103.801H221.642V98.6516H223.215V105.34H221.91L216.558 100.19H217.204V105.34H215.631Z" fill="var(--fill-0, #C91F36)"/>
<path d="M225.502 105.34V98.6516H229.233C230.159 98.6516 230.972 98.7917 231.671 99.072C232.37 99.3522 232.915 99.7408 233.305 100.238C233.695 100.734 233.89 101.32 233.89 101.996C233.89 102.664 233.695 103.25 233.305 103.754C232.915 104.25 232.37 104.639 231.671 104.919C230.972 105.199 230.159 105.34 229.233 105.34H225.502ZM227.087 104.289H229.16C229.802 104.289 230.354 104.193 230.818 104.002C231.289 103.811 231.651 103.543 231.903 103.199C232.163 102.855 232.293 102.454 232.293 101.996C232.293 101.531 232.163 101.129 231.903 100.792C231.651 100.448 231.289 100.18 230.818 99.9892C230.354 99.7981 229.802 99.7026 229.16 99.7026H227.087V104.289Z" fill="var(--fill-0, #C91F36)"/>
<path d="M237.433 106.295L241.456 97.2949H242.821L238.798 106.295H237.433Z" fill="var(--fill-0, #C91F36)"/>
<path d="M241.1 106.295L245.123 97.2949H246.489L242.465 106.295H241.1Z" fill="var(--fill-0, #C91F36)"/>
<path d="M253.151 105.435C252.485 105.435 251.847 105.362 251.237 105.215C250.627 105.062 250.144 104.868 249.786 104.633L250.335 103.668C250.676 103.878 251.099 104.053 251.603 104.193C252.107 104.333 252.623 104.403 253.151 104.403C253.598 104.403 253.96 104.365 254.236 104.289C254.513 104.212 254.716 104.11 254.846 103.983C254.976 103.849 255.041 103.699 255.041 103.534C255.041 103.33 254.948 103.168 254.761 103.047C254.574 102.919 254.33 102.82 254.029 102.75C253.737 102.674 253.407 102.604 253.042 102.54C252.684 102.476 252.322 102.403 251.956 102.32C251.599 102.231 251.27 102.12 250.969 101.986C250.676 101.846 250.436 101.661 250.25 101.432C250.063 101.203 249.969 100.91 249.969 100.553C249.969 100.19 250.091 99.8586 250.335 99.5593C250.587 99.2535 250.965 99.0115 251.469 98.8331C251.981 98.6484 252.627 98.5561 253.407 98.5561C253.919 98.5561 254.427 98.607 254.931 98.7089C255.435 98.8108 255.874 98.9573 256.248 99.1484L255.748 100.113C255.366 99.935 254.972 99.8045 254.566 99.7217C254.159 99.6325 253.769 99.5879 253.395 99.5879C252.956 99.5879 252.599 99.6293 252.322 99.7121C252.054 99.7949 251.855 99.9032 251.725 100.037C251.603 100.171 251.542 100.324 251.542 100.496C251.542 100.699 251.631 100.865 251.81 100.992C251.997 101.113 252.237 101.209 252.529 101.279C252.83 101.349 253.163 101.419 253.529 101.489C253.895 101.553 254.257 101.626 254.614 101.709C254.98 101.792 255.309 101.9 255.602 102.034C255.903 102.168 256.142 102.349 256.321 102.578C256.508 102.808 256.602 103.097 256.602 103.448C256.602 103.804 256.476 104.136 256.224 104.441C255.98 104.741 255.602 104.983 255.09 105.168C254.578 105.346 253.932 105.435 253.151 105.435Z" fill="var(--fill-0, #C91F36)"/>
<path d="M260.092 105.34V102.693L260.445 103.457L256.739 98.6516H258.434L261.409 102.521H260.458L263.457 98.6516H265.017L261.311 103.457L261.677 102.693V105.34H260.092Z" fill="var(--fill-0, #C91F36)"/>
<path d="M268.523 105.435C267.856 105.435 267.218 105.362 266.608 105.215C265.999 105.062 265.515 104.868 265.157 104.633L265.706 103.668C266.048 103.878 266.47 104.053 266.974 104.193C267.478 104.333 267.994 104.403 268.523 104.403C268.97 104.403 269.331 104.365 269.608 104.289C269.884 104.212 270.087 104.11 270.217 103.983C270.347 103.849 270.412 103.699 270.412 103.534C270.412 103.33 270.319 103.168 270.132 103.047C269.945 102.919 269.701 102.82 269.4 102.75C269.108 102.674 268.779 102.604 268.413 102.54C268.055 102.476 267.693 102.403 267.328 102.32C266.97 102.231 266.641 102.12 266.34 101.986C266.048 101.846 265.808 101.661 265.621 101.432C265.434 101.203 265.34 100.91 265.34 100.553C265.34 100.19 265.462 99.8586 265.706 99.5593C265.958 99.2535 266.336 99.0115 266.84 98.8331C267.352 98.6484 267.998 98.5561 268.779 98.5561C269.291 98.5561 269.799 98.607 270.303 98.7089C270.807 98.8108 271.245 98.9573 271.619 99.1484L271.119 100.113C270.737 99.935 270.343 99.8045 269.937 99.7217C269.53 99.6325 269.14 99.5879 268.766 99.5879C268.327 99.5879 267.97 99.6293 267.693 99.7121C267.425 99.7949 267.226 99.9032 267.096 100.037C266.974 100.171 266.913 100.324 266.913 100.496C266.913 100.699 267.003 100.865 267.181 100.992C267.368 101.113 267.608 101.209 267.901 101.279C268.201 101.349 268.535 101.419 268.901 101.489C269.266 101.553 269.628 101.626 269.986 101.709C270.351 101.792 270.681 101.9 270.973 102.034C271.274 102.168 271.514 102.349 271.693 102.578C271.879 102.808 271.973 103.097 271.973 103.448C271.973 103.804 271.847 104.136 271.595 104.441C271.351 104.741 270.973 104.983 270.461 105.168C269.949 105.346 269.303 105.435 268.523 105.435Z" fill="var(--fill-0, #C91F36)"/>
<path d="M275.157 105.34V99.7026H272.328V98.6516H279.57V99.7026H276.742V105.34H275.157Z" fill="var(--fill-0, #C91F36)"/>
<path d="M282.223 101.432H286.466V102.454H282.223V101.432ZM282.345 104.298H287.161V105.34H280.76V98.6516H286.99V99.693H282.345V104.298Z" fill="var(--fill-0, #C91F36)"/>
<path d="M288.928 105.34V98.6516H290.232L293.963 103.534H293.28L296.95 98.6516H298.255L298.267 105.34H296.767L296.755 100.496H297.072L293.951 104.575H293.244L290.074 100.496H290.44V105.34H288.928Z" fill="var(--fill-0, #C91F36)"/>
<path d="M305.393 101.728H309.648V102.779H305.393V101.728ZM305.527 105.34H303.942V98.6516H310.172V99.693H305.527V105.34Z" fill="var(--fill-0, #C91F36)"/>
<path d="M310.129 105.34L313.969 98.6516H315.53L319.383 105.34H317.724L314.42 99.3108H315.054L311.763 105.34H310.129ZM311.897 103.792L312.323 102.817H316.932L317.359 103.792H311.897Z" fill="var(--fill-0, #C91F36)"/>
<path d="M320.468 105.34V98.6516H322.053V105.34H320.468Z" fill="var(--fill-0, #C91F36)"/>
<path d="M324.361 105.34V98.6516H325.946V104.289H330.409V105.34H324.361Z" fill="var(--fill-0, #C91F36)"/>
<path d="M335.211 105.435C334.04 105.435 333.122 105.177 332.455 104.661C331.797 104.145 331.468 103.4 331.468 102.425V98.6516H333.053V102.378C333.053 103.066 333.24 103.566 333.614 103.878C333.996 104.19 334.532 104.346 335.223 104.346C335.914 104.346 336.446 104.19 336.82 103.878C337.194 103.566 337.381 103.066 337.381 102.378V98.6516H338.942V102.425C338.942 103.4 338.609 104.145 337.942 104.661C337.284 105.177 336.373 105.435 335.211 105.435Z" fill="var(--fill-0, #C91F36)"/>
<path d="M341.161 105.34V98.6516H344.673C345.429 98.6516 346.075 98.7472 346.611 98.9382C347.156 99.1293 347.575 99.4032 347.867 99.7599C348.16 100.117 348.306 100.54 348.306 101.031C348.306 101.521 348.16 101.945 347.867 102.301C347.575 102.652 347.156 102.922 346.611 103.113C346.075 103.298 345.429 103.39 344.673 103.39H342.039L342.746 102.827V105.34H341.161ZM346.746 105.34L344.588 102.913H346.282L348.452 105.34H346.746ZM342.746 102.961L342.039 102.368H344.6C345.299 102.368 345.823 102.25 346.173 102.015C346.53 101.779 346.709 101.451 346.709 101.031C346.709 100.604 346.53 100.276 346.173 100.047C345.823 99.8172 345.299 99.7026 344.6 99.7026H342.039L342.746 99.0911V102.961Z" fill="var(--fill-0, #C91F36)"/>
<path d="M351.543 101.432H355.785V102.454H351.543V101.432ZM351.664 104.298H356.48V105.34H350.079V98.6516H356.31V99.693H351.664V104.298Z" fill="var(--fill-0, #C91F36)"/>
<path d="M360.885 103.82V102.961L365.092 98.6516H366.786L362.641 102.961L361.848 102.769H368.615V103.82H360.885ZM365.567 105.34V103.82L365.616 102.769V101.422H367.103V105.34H365.567Z" fill="var(--fill-0, #C91F36)"/>
<path d="M372.842 105.435C372.168 105.435 371.558 105.301 371.014 105.034C370.477 104.766 370.054 104.378 369.746 103.868C369.437 103.352 369.282 102.728 369.282 101.996C369.282 101.263 369.437 100.642 369.746 100.133C370.054 99.6166 370.477 99.2249 371.014 98.9573C371.558 98.6898 372.168 98.5561 372.842 98.5561C373.525 98.5561 374.135 98.6898 374.671 98.9573C375.208 99.2249 375.63 99.6166 375.939 100.133C376.256 100.642 376.415 101.263 376.415 101.996C376.415 102.728 376.256 103.352 375.939 103.868C375.63 104.378 375.208 104.766 374.671 105.034C374.135 105.301 373.525 105.435 372.842 105.435ZM372.842 104.355C373.241 104.355 373.586 104.273 373.879 104.107C374.171 103.935 374.399 103.674 374.561 103.324C374.732 102.973 374.818 102.531 374.818 101.996C374.818 101.454 374.732 101.011 374.561 100.668C374.399 100.317 374.171 100.059 373.879 99.8936C373.586 99.7217 373.241 99.6357 372.842 99.6357C372.46 99.6357 372.119 99.7217 371.818 99.8936C371.526 100.059 371.294 100.317 371.123 100.668C370.961 101.011 370.879 101.454 370.879 101.996C370.879 102.531 370.961 102.973 371.123 103.324C371.294 103.674 371.526 103.935 371.818 104.107C372.119 104.273 372.46 104.355 372.842 104.355Z" fill="var(--fill-0, #C91F36)"/>
<path d="M377.364 103.82V102.961L381.57 98.6516H383.265L379.12 102.961L378.327 102.769H385.094V103.82H377.364ZM382.046 105.34V103.82L382.094 102.769V101.422H383.582V105.34H382.046Z" fill="var(--fill-0, #C91F36)"/>
</g>
<g id="page not found // SYSTEM FAILURE 405">
<path d="M119.094 105.34V98.6516H122.605C123.361 98.6516 124.007 98.7472 124.544 98.9382C125.088 99.1293 125.507 99.4032 125.799 99.7599C126.092 100.117 126.238 100.54 126.238 101.031C126.238 101.521 126.092 101.945 125.799 102.301C125.507 102.658 125.088 102.932 124.544 103.123C124.007 103.314 123.361 103.41 122.605 103.41H119.972L120.679 102.827V105.34H119.094ZM120.679 102.961L119.972 102.359H122.532C123.231 102.359 123.755 102.244 124.105 102.015C124.462 101.779 124.641 101.451 124.641 101.031C124.641 100.604 124.462 100.276 124.105 100.047C123.755 99.8172 123.231 99.7026 122.532 99.7026H119.972L120.679 99.0911V102.961Z" fill="var(--fill-0, #F2B395)"/>
<path d="M126.186 105.34L130.026 98.6516H131.587L135.439 105.34H133.781L130.477 99.3108H131.111L127.819 105.34H126.186ZM127.953 103.792L128.38 102.817H132.989L133.416 103.792H127.953Z" fill="var(--fill-0, #F2B395)"/>
<path d="M140.393 105.435C139.726 105.435 139.112 105.352 138.552 105.187C137.999 105.015 137.515 104.776 137.101 104.47C136.686 104.158 136.365 103.792 136.138 103.371C135.91 102.951 135.796 102.492 135.796 101.996C135.796 101.499 135.91 101.04 136.138 100.62C136.365 100.199 136.686 99.8363 137.101 99.5306C137.523 99.2185 138.015 98.9796 138.576 98.814C139.137 98.6421 139.751 98.5561 140.417 98.5561C141.14 98.5561 141.791 98.6484 142.368 98.8331C142.953 99.0179 143.445 99.2886 143.843 99.6452L142.843 100.41C142.51 100.148 142.148 99.9573 141.758 99.8363C141.376 99.7089 140.953 99.6452 140.49 99.6452C140.043 99.6452 139.629 99.7026 139.247 99.8172C138.865 99.9319 138.535 100.094 138.259 100.304C137.983 100.515 137.767 100.763 137.613 101.05C137.466 101.336 137.393 101.652 137.393 101.996C137.393 102.333 137.466 102.645 137.613 102.932C137.767 103.218 137.983 103.47 138.259 103.687C138.535 103.897 138.86 104.059 139.234 104.174C139.608 104.289 140.023 104.346 140.478 104.346C140.901 104.346 141.307 104.295 141.697 104.193C142.095 104.085 142.473 103.906 142.831 103.658L143.733 104.585C143.286 104.865 142.766 105.078 142.173 105.225C141.587 105.365 140.994 105.435 140.393 105.435ZM142.234 104.422V101.919H143.733V104.585L142.234 104.422Z" fill="var(--fill-0, #F2B395)"/>
<path d="M147.287 101.432H151.53V102.454H147.287V101.432ZM147.409 104.298H152.225V105.34H145.824V98.6516H152.054V99.693H147.409V104.298Z" fill="var(--fill-0, #F2B395)"/>
<path d="M157.361 105.34V98.6516H158.666L164.018 103.801H163.372V98.6516H164.945V105.34H163.64L158.288 100.19H158.934V105.34H157.361Z" fill="var(--fill-0, #F2B395)"/>
<path d="M171.231 105.435C170.564 105.435 169.951 105.349 169.39 105.177C168.829 105.005 168.341 104.766 167.927 104.461C167.512 104.148 167.191 103.785 166.963 103.371C166.736 102.951 166.622 102.492 166.622 101.996C166.622 101.499 166.736 101.043 166.963 100.629C167.191 100.209 167.512 99.8459 167.927 99.5401C168.341 99.228 168.829 98.986 169.39 98.814C169.951 98.6421 170.56 98.5561 171.219 98.5561C171.885 98.5561 172.495 98.6421 173.047 98.814C173.608 98.986 174.096 99.228 174.51 99.5401C174.925 99.8459 175.246 100.209 175.474 100.629C175.701 101.043 175.815 101.499 175.815 101.996C175.815 102.492 175.701 102.951 175.474 103.371C175.246 103.792 174.925 104.155 174.51 104.461C174.096 104.766 173.608 105.005 173.047 105.177C172.495 105.349 171.889 105.435 171.231 105.435ZM171.219 104.346C171.649 104.346 172.048 104.289 172.413 104.174C172.779 104.059 173.096 103.897 173.364 103.687C173.633 103.47 173.84 103.222 173.986 102.941C174.141 102.655 174.218 102.34 174.218 101.996C174.218 101.652 174.141 101.34 173.986 101.059C173.84 100.773 173.633 100.524 173.364 100.314C173.096 100.097 172.779 99.9319 172.413 99.8172C172.048 99.7026 171.649 99.6452 171.219 99.6452C170.788 99.6452 170.389 99.7026 170.024 99.8172C169.666 99.9319 169.349 100.097 169.073 100.314C168.804 100.524 168.593 100.773 168.439 101.059C168.292 101.34 168.219 101.652 168.219 101.996C168.219 102.333 168.292 102.645 168.439 102.932C168.593 103.218 168.804 103.47 169.073 103.687C169.341 103.897 169.658 104.059 170.024 104.174C170.389 104.289 170.788 104.346 171.219 104.346Z" fill="var(--fill-0, #F2B395)"/>
<path d="M179.107 105.34V99.7026H176.279V98.6516H183.521V99.7026H180.692V105.34H179.107Z" fill="var(--fill-0, #F2B395)"/>
<path d="M189.531 101.728H193.786V102.779H189.531V101.728ZM189.665 105.34H188.08V98.6516H194.31V99.693H189.665V105.34Z" fill="var(--fill-0, #F2B395)"/>
<path d="M199.747 105.435C199.08 105.435 198.467 105.349 197.906 105.177C197.345 105.005 196.857 104.766 196.443 104.461C196.028 104.148 195.707 103.785 195.479 103.371C195.252 102.951 195.138 102.492 195.138 101.996C195.138 101.499 195.252 101.043 195.479 100.629C195.707 100.209 196.028 99.8459 196.443 99.5401C196.857 99.228 197.345 98.986 197.906 98.814C198.467 98.6421 199.076 98.5561 199.735 98.5561C200.401 98.5561 201.011 98.6421 201.563 98.814C202.124 98.986 202.612 99.228 203.026 99.5401C203.441 99.8459 203.762 100.209 203.99 100.629C204.217 101.043 204.331 101.499 204.331 101.996C204.331 102.492 204.217 102.951 203.99 103.371C203.762 103.792 203.441 104.155 203.026 104.461C202.612 104.766 202.124 105.005 201.563 105.177C201.011 105.349 200.405 105.435 199.747 105.435ZM199.735 104.346C200.165 104.346 200.564 104.289 200.929 104.174C201.295 104.059 201.612 103.897 201.88 103.687C202.149 103.47 202.356 103.222 202.502 102.941C202.657 102.655 202.734 102.34 202.734 101.996C202.734 101.652 202.657 101.34 202.502 101.059C202.356 100.773 202.149 100.524 201.88 100.314C201.612 100.097 201.295 99.9319 200.929 99.8172C200.564 99.7026 200.165 99.6452 199.735 99.6452C199.304 99.6452 198.905 99.7026 198.54 99.8172C198.182 99.9319 197.865 100.097 197.589 100.314C197.32 100.524 197.109 100.773 196.955 101.059C196.808 101.34 196.735 101.652 196.735 101.996C196.735 102.333 196.808 102.645 196.955 102.932C197.109 103.218 197.32 103.47 197.589 103.687C197.857 103.897 198.174 104.059 198.54 104.174C198.905 104.289 199.304 104.346 199.735 104.346Z" fill="var(--fill-0, #F2B395)"/>
<path d="M209.681 105.435C208.51 105.435 207.592 105.177 206.925 104.661C206.267 104.145 205.938 103.4 205.938 102.425V98.6516H207.523V102.378C207.523 103.066 207.71 103.566 208.084 103.878C208.466 104.19 209.002 104.346 209.693 104.346C210.384 104.346 210.916 104.19 211.29 103.878C211.664 103.566 211.851 103.066 211.851 102.378V98.6516H213.412V102.425C213.412 103.4 213.078 104.145 212.412 104.661C211.754 105.177 210.843 105.435 209.681 105.435Z" fill="var(--fill-0, #F2B395)"/>
<path d="M215.631 105.34V98.6516H216.936L222.288 103.801H221.642V98.6516H223.215V105.34H221.91L216.558 100.19H217.204V105.34H215.631Z" fill="var(--fill-0, #F2B395)"/>
<path d="M225.502 105.34V98.6516H229.233C230.159 98.6516 230.972 98.7917 231.671 99.072C232.37 99.3522 232.915 99.7408 233.305 100.238C233.695 100.734 233.89 101.32 233.89 101.996C233.89 102.664 233.695 103.25 233.305 103.754C232.915 104.25 232.37 104.639 231.671 104.919C230.972 105.199 230.159 105.34 229.233 105.34H225.502ZM227.087 104.289H229.16C229.802 104.289 230.354 104.193 230.818 104.002C231.289 103.811 231.651 103.543 231.903 103.199C232.163 102.855 232.293 102.454 232.293 101.996C232.293 101.531 232.163 101.129 231.903 100.792C231.651 100.448 231.289 100.18 230.818 99.9892C230.354 99.7981 229.802 99.7026 229.16 99.7026H227.087V104.289Z" fill="var(--fill-0, #F2B395)"/>
<path d="M237.433 106.295L241.456 97.2949H242.821L238.798 106.295H237.433Z" fill="var(--fill-0, #F2B395)"/>
<path d="M241.1 106.295L245.123 97.2949H246.489L242.465 106.295H241.1Z" fill="var(--fill-0, #F2B395)"/>
<path d="M253.151 105.435C252.485 105.435 251.847 105.362 251.237 105.215C250.627 105.062 250.144 104.868 249.786 104.633L250.335 103.668C250.676 103.878 251.099 104.053 251.603 104.193C252.107 104.333 252.623 104.403 253.151 104.403C253.598 104.403 253.96 104.365 254.236 104.289C254.513 104.212 254.716 104.11 254.846 103.983C254.976 103.849 255.041 103.699 255.041 103.534C255.041 103.33 254.948 103.168 254.761 103.047C254.574 102.919 254.33 102.82 254.029 102.75C253.737 102.674 253.407 102.604 253.042 102.54C252.684 102.476 252.322 102.403 251.956 102.32C251.599 102.231 251.27 102.12 250.969 101.986C250.676 101.846 250.436 101.661 250.25 101.432C250.063 101.203 249.969 100.91 249.969 100.553C249.969 100.19 250.091 99.8586 250.335 99.5593C250.587 99.2535 250.965 99.0115 251.469 98.8331C251.981 98.6484 252.627 98.5561 253.407 98.5561C253.919 98.5561 254.427 98.607 254.931 98.7089C255.435 98.8108 255.874 98.9573 256.248 99.1484L255.748 100.113C255.366 99.935 254.972 99.8045 254.566 99.7217C254.159 99.6325 253.769 99.5879 253.395 99.5879C252.956 99.5879 252.599 99.6293 252.322 99.7121C252.054 99.7949 251.855 99.9032 251.725 100.037C251.603 100.171 251.542 100.324 251.542 100.496C251.542 100.699 251.631 100.865 251.81 100.992C251.997 101.113 252.237 101.209 252.529 101.279C252.83 101.349 253.163 101.419 253.529 101.489C253.895 101.553 254.257 101.626 254.614 101.709C254.98 101.792 255.309 101.9 255.602 102.034C255.903 102.168 256.142 102.349 256.321 102.578C256.508 102.808 256.602 103.097 256.602 103.448C256.602 103.804 256.476 104.136 256.224 104.441C255.98 104.741 255.602 104.983 255.09 105.168C254.578 105.346 253.932 105.435 253.151 105.435Z" fill="var(--fill-0, #F2B395)"/>
<path d="M260.092 105.34V102.693L260.445 103.457L256.739 98.6516H258.434L261.409 102.521H260.458L263.457 98.6516H265.017L261.311 103.457L261.677 102.693V105.34H260.092Z" fill="var(--fill-0, #F2B395)"/>
<path d="M268.523 105.435C267.856 105.435 267.218 105.362 266.608 105.215C265.999 105.062 265.515 104.868 265.157 104.633L265.706 103.668C266.048 103.878 266.47 104.053 266.974 104.193C267.478 104.333 267.994 104.403 268.523 104.403C268.97 104.403 269.331 104.365 269.608 104.289C269.884 104.212 270.087 104.11 270.217 103.983C270.347 103.849 270.412 103.699 270.412 103.534C270.412 103.33 270.319 103.168 270.132 103.047C269.945 102.919 269.701 102.82 269.4 102.75C269.108 102.674 268.779 102.604 268.413 102.54C268.055 102.476 267.693 102.403 267.328 102.32C266.97 102.231 266.641 102.12 266.34 101.986C266.048 101.846 265.808 101.661 265.621 101.432C265.434 101.203 265.34 100.91 265.34 100.553C265.34 100.19 265.462 99.8586 265.706 99.5593C265.958 99.2535 266.336 99.0115 266.84 98.8331C267.352 98.6484 267.998 98.5561 268.779 98.5561C269.291 98.5561 269.799 98.607 270.303 98.7089C270.807 98.8108 271.245 98.9573 271.619 99.1484L271.119 100.113C270.737 99.935 270.343 99.8045 269.937 99.7217C269.53 99.6325 269.14 99.5879 268.766 99.5879C268.327 99.5879 267.97 99.6293 267.693 99.7121C267.425 99.7949 267.226 99.9032 267.096 100.037C266.974 100.171 266.913 100.324 266.913 100.496C266.913 100.699 267.003 100.865 267.181 100.992C267.368 101.113 267.608 101.209 267.901 101.279C268.201 101.349 268.535 101.419 268.901 101.489C269.266 101.553 269.628 101.626 269.986 101.709C270.351 101.792 270.681 101.9 270.973 102.034C271.274 102.168 271.514 102.349 271.693 102.578C271.879 102.808 271.973 103.097 271.973 103.448C271.973 103.804 271.847 104.136 271.595 104.441C271.351 104.741 270.973 104.983 270.461 105.168C269.949 105.346 269.303 105.435 268.523 105.435Z" fill="var(--fill-0, #F2B395)"/>
<path d="M275.157 105.34V99.7026H272.328V98.6516H279.57V99.7026H276.742V105.34H275.157Z" fill="var(--fill-0, #F2B395)"/>
<path d="M282.223 101.432H286.466V102.454H282.223V101.432ZM282.345 104.298H287.161V105.34H280.76V98.6516H286.99V99.693H282.345V104.298Z" fill="var(--fill-0, #F2B395)"/>
<path d="M288.928 105.34V98.6516H290.232L293.963 103.534H293.28L296.95 98.6516H298.255L298.267 105.34H296.767L296.755 100.496H297.072L293.951 104.575H293.244L290.074 100.496H290.44V105.34H288.928Z" fill="var(--fill-0, #F2B395)"/>
<path d="M305.393 101.728H309.648V102.779H305.393V101.728ZM305.527 105.34H303.942V98.6516H310.172V99.693H305.527V105.34Z" fill="var(--fill-0, #F2B395)"/>
<path d="M310.129 105.34L313.969 98.6516H315.53L319.383 105.34H317.724L314.42 99.3108H315.054L311.763 105.34H310.129ZM311.897 103.792L312.323 102.817H316.932L317.359 103.792H311.897Z" fill="var(--fill-0, #F2B395)"/>
<path d="M320.468 105.34V98.6516H322.053V105.34H320.468Z" fill="var(--fill-0, #F2B395)"/>
<path d="M324.361 105.34V98.6516H325.946V104.289H330.409V105.34H324.361Z" fill="var(--fill-0, #F2B395)"/>
<path d="M335.211 105.435C334.04 105.435 333.122 105.177 332.455 104.661C331.797 104.145 331.468 103.4 331.468 102.425V98.6516H333.053V102.378C333.053 103.066 333.24 103.566 333.614 103.878C333.996 104.19 334.532 104.346 335.223 104.346C335.914 104.346 336.446 104.19 336.82 103.878C337.194 103.566 337.381 103.066 337.381 102.378V98.6516H338.942V102.425C338.942 103.4 338.609 104.145 337.942 104.661C337.284 105.177 336.373 105.435 335.211 105.435Z" fill="var(--fill-0, #F2B395)"/>
<path d="M341.161 105.34V98.6516H344.673C345.429 98.6516 346.075 98.7472 346.611 98.9382C347.156 99.1293 347.575 99.4032 347.867 99.7599C348.16 100.117 348.306 100.54 348.306 101.031C348.306 101.521 348.16 101.945 347.867 102.301C347.575 102.652 347.156 102.922 346.611 103.113C346.075 103.298 345.429 103.39 344.673 103.39H342.039L342.746 102.827V105.34H341.161ZM346.746 105.34L344.588 102.913H346.282L348.452 105.34H346.746ZM342.746 102.961L342.039 102.368H344.6C345.299 102.368 345.823 102.25 346.173 102.015C346.53 101.779 346.709 101.451 346.709 101.031C346.709 100.604 346.53 100.276 346.173 100.047C345.823 99.8172 345.299 99.7026 344.6 99.7026H342.039L342.746 99.0911V102.961Z" fill="var(--fill-0, #F2B395)"/>
<path d="M351.543 101.432H355.785V102.454H351.543V101.432ZM351.664 104.298H356.48V105.34H350.079V98.6516H356.31V99.693H351.664V104.298Z" fill="var(--fill-0, #F2B395)"/>
<path d="M360.885 103.82V102.961L365.092 98.6516H366.786L362.641 102.961L361.848 102.769H368.615V103.82H360.885ZM365.567 105.34V103.82L365.616 102.769V101.422H367.103V105.34H365.567Z" fill="var(--fill-0, #F2B395)"/>
<path d="M372.842 105.435C372.168 105.435 371.558 105.301 371.014 105.034C370.477 104.766 370.054 104.378 369.746 103.868C369.437 103.352 369.282 102.728 369.282 101.996C369.282 101.263 369.437 100.642 369.746 100.133C370.054 99.6166 370.477 99.2249 371.014 98.9573C371.558 98.6898 372.168 98.5561 372.842 98.5561C373.525 98.5561 374.135 98.6898 374.671 98.9573C375.208 99.2249 375.63 99.6166 375.939 100.133C376.256 100.642 376.415 101.263 376.415 101.996C376.415 102.728 376.256 103.352 375.939 103.868C375.63 104.378 375.208 104.766 374.671 105.034C374.135 105.301 373.525 105.435 372.842 105.435ZM372.842 104.355C373.241 104.355 373.586 104.273 373.879 104.107C374.171 103.935 374.399 103.674 374.561 103.324C374.732 102.973 374.818 102.531 374.818 101.996C374.818 101.454 374.732 101.011 374.561 100.668C374.399 100.317 374.171 100.059 373.879 99.8936C373.586 99.7217 373.241 99.6357 372.842 99.6357C372.46 99.6357 372.119 99.7217 371.818 99.8936C371.526 100.059 371.294 100.317 371.123 100.668C370.961 101.011 370.879 101.454 370.879 101.996C370.879 102.531 370.961 102.973 371.123 103.324C371.294 103.674 371.526 103.935 371.818 104.107C372.119 104.273 372.46 104.355 372.842 104.355Z" fill="var(--fill-0, #F2B395)"/>
<path d="M377.364 103.82V102.961L381.57 98.6516H383.265L379.12 102.961L378.327 102.769H385.094V103.82H377.364ZM382.046 105.34V103.82L382.094 102.769V101.422H383.582V105.34H382.046Z" fill="var(--fill-0, #F2B395)"/>
</g>
</g>
<defs>
<filter id="filter0_f_0_5" x="0" y="0" width="505.088" height="114.888" filterUnits="userSpaceOnUse" color-interpolation-filters="sRGB">
<feFlood flood-opacity="0" result="BackgroundImageFix"/>
<feBlend mode="normal" in="SourceGraphic" in2="BackgroundImageFix" result="shape"/>
<feGaussianBlur stdDeviation="15" result="effect1_foregroundBlur_0_5"/>
</filter>
<filter id="filter1_f_0_5" x="99.0938" y="77.2949" width="306" height="49" filterUnits="userSpaceOnUse" color-interpolation-filters="sRGB">
<feFlood flood-opacity="0" result="BackgroundImageFix"/>
<feBlend mode="normal" in="SourceGraphic" in2="BackgroundImageFix" result="shape"/>
<feGaussianBlur stdDeviation="10" result="effect1_foregroundBlur_0_5"/>
</filter>
</defs>
</svg>
