<svg preserveAspectRatio="xMidYMid meet" width="100%" height="100%" overflow="visible" style="display: block;" viewBox="0 0 11.82 11.82" fill="none" xmlns="http://www.w3.org/2000/svg">
<path id="Instagram" fill-rule="evenodd" clip-rule="evenodd" d="M5.91001 0C4.30494 0 4.10369 0.00680276 3.47332 0.0355645C2.84427 0.0642556 2.41464 0.16417 2.03872 0.310277C1.65009 0.461288 1.32051 0.663371 0.991929 0.991925C0.663374 1.3205 0.461288 1.65009 0.310277 2.03872C0.16417 2.41464 0.0642594 2.84426 0.0355683 3.47331C0.00680652 4.10368 0 4.30494 0 5.91001C0 7.51506 0.00680652 7.71632 0.0355683 8.34669C0.0642594 8.97574 0.16417 9.40536 0.310277 9.78128C0.461288 10.1699 0.663374 10.4995 0.991929 10.8281C1.32051 11.1566 1.65009 11.3587 2.03872 11.5097C2.41464 11.6558 2.84427 11.7557 3.47332 11.7844C4.10369 11.8132 4.30494 11.82 5.91001 11.82C7.51506 11.82 7.71631 11.8132 8.34668 11.7844C8.97573 11.7557 9.40535 11.6558 9.78127 11.5097C10.1699 11.3587 10.4995 11.1566 10.8281 10.8281C11.1566 10.4995 11.3587 10.1699 11.5097 9.78128C11.6558 9.40536 11.7557 8.97574 11.7844 8.34669C11.8132 7.71632 11.82 7.51506 11.82 5.91001C11.82 4.30494 11.8132 4.10368 11.7844 3.47331C11.7557 2.84426 11.6558 2.41464 11.5097 2.03872C11.3587 1.65009 11.1566 1.3205 10.8281 0.991925C10.4995 0.663371 10.1699 0.461288 9.78127 0.310277C9.40535 0.16417 8.97573 0.0642556 8.34668 0.0355645C7.71631 0.00680276 7.51506 0 5.91001 0ZM5.91001 0.971396C7.48804 0.971396 7.67496 1.07089 8.29815 1.09932C8.87437 1.1256 9.1873 1.22188 9.39556 1.30281C9.67142 1.41003 9.86829 1.53809 10.0751 1.74492C10.2819 1.95171 10.41 2.14859 10.5172 2.42445C10.5981 2.6327 10.6944 2.94563 10.7207 3.52185C10.7491 4.14504 10.7551 4.33197 10.7551 5.91001C10.7551 7.48803 10.7491 7.67496 10.7207 8.29815C10.6944 8.87437 10.5981 9.1873 10.5172 9.39555C10.41 9.67141 10.2819 9.86829 10.0751 10.0751C9.86829 10.2819 9.67142 10.41 9.39556 10.5172C9.1873 10.5981 8.87437 10.6944 8.29815 10.7207C7.67505 10.7491 7.48815 10.7551 5.91001 10.7551C4.33185 10.7551 4.14497 10.7491 3.52185 10.7207C2.94563 10.6944 2.6327 10.5981 2.42445 10.5172C2.14859 10.41 1.95171 10.2819 1.74491 10.0751C1.53811 9.86829 1.41003 9.67141 1.30281 9.39555C1.22188 9.1873 1.1256 8.87437 1.09932 8.29815C1.07089 7.67496 1.06486 7.48803 1.06486 5.91001C1.06486 4.33197 1.07089 4.14504 1.09932 3.52185C1.1256 2.94563 1.22188 2.6327 1.30281 2.42445C1.41003 2.14859 1.53809 1.95171 1.74491 1.74492C1.95171 1.53809 2.14859 1.41003 2.42445 1.30281C2.6327 1.22188 2.92378 1.02627 3.5 1C4.12319 0.971567 4.33197 0.971396 5.91001 0.971396ZM5.91001 2.87514C4.23388 2.87514 2.87514 4.23388 2.87514 5.91001C2.87514 7.58612 4.23388 8.94486 5.91001 8.94486C7.58612 8.94486 8.94487 7.58612 8.94487 5.91001C8.94487 4.23388 7.58612 2.87514 5.91001 2.87514ZM5.91001 7.88C4.822 7.88 3.94 6.99801 3.94 5.91001C3.94 4.82199 4.822 3.94 5.91001 3.94C6.99801 3.94 7.88 4.82199 7.88 5.91001C7.88 6.99801 6.99801 7.88 5.91001 7.88ZM9.77398 2.75523C9.77398 3.14692 9.45645 3.46442 9.06476 3.46442C8.6731 3.46442 8.35558 3.14692 8.35558 2.75523C8.35558 2.36355 8.6731 2.04602 9.06476 2.04602C9.45645 2.04602 9.77398 2.36355 9.77398 2.75523Z" fill="var(--fill-0, white)"/>
</svg>
