<svg width="11" height="14" viewBox="0 0 11 14" fill="none" xmlns="http://www.w3.org/2000/svg">
<path d="M3.55208 3.39062C3.55208 3.39062 3.68576 3.26302 3.95312 3.00781C4.22049 2.7526 4.73611 2.625 5.5 2.625C6.26389 2.625 6.91319 2.88021 7.44792 3.39062C7.98264 3.90104 8.25 4.52083 8.25 5.25C8.25 5.97917 7.98264 6.59896 7.44792 7.10938C6.91319 7.61979 6.26389 7.875 5.5 7.875C4.73611 7.875 4.08681 7.61979 3.55208 7.10938C3.01736 6.59896 2.75 5.97917 2.75 5.25C2.75 4.52083 3.01736 3.90104 3.55208 3.39062ZM4.21094 6.48047C4.21094 6.48047 4.30165 6.56706 4.48307 6.74023C4.6645 6.91341 5.00347 7 5.5 7C5.99653 7 6.42622 6.82682 6.78906 6.48047C7.15191 6.13411 7.33333 5.72396 7.33333 5.25C7.33333 4.77604 7.15191 4.36589 6.78906 4.01953C6.42622 3.67318 5.99653 3.5 5.5 3.5C5.00347 3.5 4.57378 3.67318 4.21094 4.01953C3.84809 4.36589 3.66667 4.77604 3.66667 5.25C3.66667 5.72396 3.84809 6.13411 4.21094 6.48047ZM1.60417 1.53125C1.60417 1.53125 1.87153 1.27604 2.40625 0.765625C2.94097 0.255208 3.97222 0 5.5 0C7.02778 0 8.32639 0.510417 9.39583 1.53125C10.4653 2.55208 11 3.79167 11 5.25C11 5.5599 10.9857 5.82878 10.957 6.05664C10.9284 6.28451 10.852 6.55339 10.7279 6.86328C10.6037 7.17318 10.4891 7.42839 10.3841 7.62891C10.2791 7.82943 10.0642 8.17122 9.73958 8.6543C9.41493 9.13737 9.12847 9.54297 8.88021 9.87109C8.63194 10.1992 8.21658 10.7643 7.63411 11.5664C7.05165 12.3685 6.53125 13.0885 6.07292 13.7266C5.93924 13.9089 5.74826 14 5.5 14C5.25174 14 5.06076 13.9089 4.92708 13.7266C4.46875 13.0885 3.94835 12.3685 3.36589 11.5664C2.78342 10.7643 2.36806 10.1992 2.11979 9.87109C1.87153 9.54297 1.58507 9.13737 1.26042 8.6543C0.935764 8.17122 0.72092 7.82943 0.615885 7.62891C0.510851 7.42839 0.396267 7.17318 0.272135 6.86328C0.148003 6.55339 0.0716146 6.28451 0.0429688 6.05664C0.0143229 5.82878 0 5.5599 0 5.25C0 3.79167 0.534722 2.55208 1.60417 1.53125ZM5.5 12.9609C5.90104 12.3958 6.34505 11.7852 6.83203 11.1289C7.31901 10.4727 7.67708 9.98503 7.90625 9.66602C8.13542 9.34701 8.398 8.98698 8.69401 8.58594C8.99002 8.1849 9.19531 7.88411 9.3099 7.68359C9.42448 7.48307 9.54861 7.26432 9.68229 7.02734C9.81597 6.79036 9.90191 6.58529 9.9401 6.41211C9.9783 6.23893 10.0117 6.0612 10.0404 5.87891C10.069 5.69661 10.0833 5.48698 10.0833 5.25C10.0833 4.04688 9.63455 3.01693 8.73698 2.16016C7.83941 1.30339 6.76042 0.875 5.5 0.875C4.23958 0.875 3.16059 1.30339 2.26302 2.16016C1.36545 3.01693 0.916667 4.04688 0.916667 5.25C0.916667 5.48698 0.93099 5.69661 0.959635 5.87891C0.988281 6.0612 1.0217 6.23893 1.0599 6.41211C1.09809 6.58529 1.18403 6.79036 1.31771 7.02734C1.45139 7.26432 1.57552 7.48307 1.6901 7.68359C1.80469 7.88411 2.00998 8.1849 2.30599 8.58594C2.602 8.98698 2.86458 9.34701 3.09375 9.66602C3.32292 9.98503 3.68099 10.4727 4.16797 11.1289C4.65495 11.7852 5.09896 12.3958 5.5 12.9609Z" fill="white"/>
</svg>
