<svg width="14" height="14" viewBox="0 0 14 14" fill="none" xmlns="http://www.w3.org/2000/svg">
<path d="M13.4805 9.59766C13.8268 9.74349 14 10.0078 14 10.3906C14 10.4635 13.9909 10.5273 13.9727 10.582L13.3438 13.3438C13.3073 13.526 13.2116 13.681 13.0566 13.8086C12.9017 13.9362 12.724 14 12.5234 14H12.4961C10.819 14 9.20573 13.6719 7.65625 13.0156C6.10677 12.3594 4.77604 11.4707 3.66406 10.3496C2.55208 9.22852 1.66341 7.89779 0.998047 6.35742C0.332682 4.81706 0 3.19922 0 1.50391V1.47656C0 1.27604 0.0638021 1.09831 0.191406 0.943359C0.31901 0.788411 0.473958 0.692708 0.65625 0.65625L3.41797 0.0273438C3.49089 0.00911427 3.55469 0 3.60938 0C3.99219 0 4.25651 0.173177 4.40234 0.519531L5.66016 3.47266C5.71484 3.58203 5.74219 3.70052 5.74219 3.82812C5.74219 4.08333 5.63281 4.30208 5.41406 4.48438L3.9375 5.6875C4.90365 7.63802 6.36198 9.09635 8.3125 10.0625L9.51562 8.58594C9.69792 8.36719 9.91667 8.25781 10.1719 8.25781C10.2995 8.25781 10.418 8.28516 10.5273 8.33984L13.4805 9.59766ZM12.4961 13.125L13.125 10.3906L10.1719 9.13281L8.55859 11.1289C7.13672 10.4727 5.9974 9.71615 5.14062 8.85938C4.28385 8.0026 3.52734 6.86328 2.87109 5.44141L4.86719 3.82812L3.60938 0.875L0.875 1.50391C0.875 3.61849 1.39453 5.56445 2.43359 7.3418C3.47266 9.11914 4.88542 10.5273 6.67188 11.5664C8.45833 12.6055 10.3997 13.125 12.4961 13.125Z" fill="white"/>
</svg>
