<svg width="12" height="14" viewBox="0 0 12 14" fill="none" xmlns="http://www.w3.org/2000/svg">
<path d="M2.83747 3.26117C2.92907 3.16011 3.23847 2.89561 3.23847 2.89561C3.29166 2.84767 3.35297 2.81183 3.41883 2.79042C3.48477 2.769 3.55388 2.76237 3.62209 2.77088C3.69039 2.77939 3.75633 2.80287 3.81626 2.84005C3.87611 2.87715 3.92865 2.92715 3.97072 2.987L4.6769 3.97771C4.75599 4.09096 4.79587 4.23154 4.78953 4.37437C4.78312 4.5171 4.73082 4.65267 4.64198 4.75678L4.30635 5.14636C4.25933 5.19815 4.22693 5.26383 4.21304 5.33551C4.19907 5.40719 4.20427 5.48174 4.2279 5.55028C4.37277 5.97884 4.58692 6.37478 4.85994 6.71893C5.198 7.07079 5.56912 7.38198 5.96704 7.6471C6.05986 7.70579 6.16746 7.72962 6.27368 7.71484C6.37982 7.70015 6.47873 7.64764 6.55547 7.5653L6.86925 7.23351C6.94835 7.13871 7.05562 7.07841 7.17159 7.06336C7.28747 7.04839 7.40449 7.07975 7.50129 7.1517L8.42965 7.83464C8.49389 7.88221 8.54862 7.94368 8.59061 8.01527C8.63267 8.08695 8.66101 8.16723 8.67409 8.25128C8.68708 8.33541 8.68456 8.42152 8.66654 8.50449C8.64851 8.58746 8.61537 8.6655 8.56917 8.73395L8.4035 8.98403C8.24036 9.22496 8.00624 9.39574 7.74134 9.46679C7.47644 9.53793 7.19733 9.50496 6.95208 9.37352C6.02786 8.92167 5.18144 8.29688 4.45025 7.52686C3.8757 6.80083 3.37311 6.00921 2.95083 5.16554L2.60213 4.33835C2.54285 4.19651 2.52125 4.03899 2.53976 3.88408C2.55828 3.72916 2.61618 3.5832 2.70672 3.46313C2.74514 3.3919 2.78891 3.32434 2.83747 3.26117ZM8.06787 5.89175C8.06787 5.82437 8.06787 5.76192 8.06787 5.69454C8.06796 5.06097 7.84131 4.45295 7.4373 4.00271C7.03329 3.55247 6.48457 3.2963 5.91036 3.29003H5.81445C5.78481 3.29245 5.75704 3.30714 5.73682 3.33124C5.71659 3.35535 5.70539 3.38697 5.70547 3.41986C5.70604 3.4367 5.70969 3.45328 5.71619 3.46851C5.72269 3.48374 5.73186 3.49745 5.74331 3.50865C5.75468 3.51994 5.768 3.52845 5.78254 3.53383C5.79699 3.53929 5.81234 3.54135 5.82752 3.5401H5.91036C6.42212 3.54135 6.91262 3.76616 7.27448 4.16542C7.63634 4.56477 7.84009 5.10586 7.84122 5.67052C7.84122 5.72823 7.84122 5.79077 7.84122 5.84847C7.84009 5.86487 7.84187 5.88144 7.84642 5.89712C7.85105 5.9128 7.85844 5.92723 7.86818 5.93977C7.87793 5.95232 7.88979 5.96253 7.9031 5.96997C7.91642 5.9774 7.93096 5.98188 7.9459 5.98314C7.97132 5.98412 7.99633 5.9757 8.01688 5.95913C8.03742 5.94255 8.05236 5.9188 8.05919 5.89175H8.06787ZM7.24411 5.60798C7.24833 5.55359 7.24833 5.49885 7.24411 5.44446C7.24297 5.10559 7.12043 4.78097 6.90328 4.54129C6.68605 4.3017 6.39183 4.16649 6.08471 4.16524H6.01065C5.9806 4.16999 5.95323 4.18692 5.93391 4.21273C5.91458 4.23844 5.90459 4.27133 5.90597 4.30475C5.9076 4.32115 5.91222 4.33709 5.91945 4.35161C5.92668 4.36612 5.9365 4.37885 5.94828 4.38915C5.95997 4.39946 5.97354 4.40707 5.98799 4.41155C6.00236 4.41603 6.01755 4.41738 6.03241 4.41531H6.08471C6.20701 4.41531 6.32809 4.44202 6.44105 4.4938C6.55392 4.5455 6.65649 4.62139 6.74273 4.71709C6.82897 4.81269 6.89727 4.92621 6.94372 5.05103C6.99009 5.17584 7.01372 5.30952 7.01315 5.44446C7.01526 5.48774 7.01526 5.53111 7.01315 5.57429C7.01064 5.59078 7.0112 5.60762 7.0147 5.62384C7.01819 5.64006 7.0246 5.65529 7.03354 5.66873C7.04247 5.68217 7.05376 5.69355 7.06667 5.70206C7.07966 5.71066 7.09404 5.71631 7.10898 5.71864C7.12392 5.72061 7.13902 5.71935 7.15348 5.71487C7.16793 5.71039 7.18141 5.70278 7.19319 5.69248C7.20488 5.68217 7.21471 5.66936 7.22194 5.65493C7.22925 5.64042 7.23379 5.62447 7.23542 5.60798H7.24411ZM8.80889 6.16108C8.80889 6.04084 8.80889 5.91576 8.80889 5.79552C8.80556 4.90032 8.48414 4.04222 7.91366 3.40552C7.34318 2.76891 6.56911 2.40451 5.75785 2.39071H5.5835C5.5688 2.39125 5.55434 2.39519 5.54102 2.40209C5.52771 2.40899 5.51577 2.41884 5.50602 2.43094C5.49628 2.44313 5.48881 2.45728 5.4841 2.47269C5.47947 2.4881 5.47768 2.50432 5.47882 2.52054C5.48109 2.55324 5.49441 2.58389 5.51626 2.6062C5.5381 2.62851 5.56677 2.64087 5.59657 2.64078H5.75785C6.51771 2.64078 7.24654 2.97347 7.7843 3.56591C8.32197 4.15825 8.62463 4.96197 8.62585 5.80035C8.62585 5.91101 8.62585 6.02641 8.62585 6.14182C8.62398 6.15795 8.6252 6.17443 8.62934 6.19002C8.6334 6.2057 8.64039 6.22031 8.64981 6.23285C8.65915 6.24549 8.67076 6.25579 8.68383 6.26332C8.69699 6.27084 8.71136 6.27532 8.72606 6.27649C8.74888 6.26878 8.76894 6.25355 8.78372 6.23294C8.7985 6.21234 8.80727 6.18725 8.80889 6.16108ZM7.22234 5.60798C7.22656 5.55359 7.22656 5.49885 7.22234 5.44446C7.22121 5.10559 7.09866 4.78097 6.88152 4.54129C6.66429 4.3017 6.37007 4.16649 6.06294 4.16524H5.9888C5.95884 4.16999 5.93147 4.18692 5.91214 4.21273C5.89273 4.23844 5.88283 4.27133 5.88421 4.30475C5.88583 4.32115 5.89038 4.33709 5.89769 4.35161C5.90491 4.36612 5.91466 4.37885 5.92643 4.38915C5.93821 4.39946 5.95169 4.40707 5.96615 4.41155C5.9806 4.41603 5.9957 4.41738 6.01065 4.41531H6.06294C6.18524 4.41531 6.30632 4.44202 6.4192 4.4938C6.53216 4.5455 6.63464 4.62139 6.72097 4.71709C6.80721 4.81269 6.87551 4.92621 6.92188 5.05103C6.96833 5.17584 6.99188 5.30952 6.99131 5.44446C6.9935 5.48774 6.9935 5.53111 6.99131 5.57429C6.98887 5.59078 6.98936 5.60762 6.99285 5.62384C6.99642 5.64006 7.00276 5.65529 7.01169 5.66873C7.02062 5.68217 7.03191 5.69355 7.0449 5.70206C7.0579 5.71066 7.07227 5.71631 7.08721 5.71864C7.10362 5.72455 7.121 5.72617 7.13813 5.72357C7.15518 5.72088 7.17151 5.71398 7.1858 5.70332C7.20009 5.69265 7.21203 5.6785 7.22064 5.66201C7.22916 5.64543 7.23428 5.62698 7.23542 5.60798H7.22234ZM11.5069 4.7135L11.4633 7.52686C11.4633 10.0757 9.3624 11.7877 7.05238 11.7877H4.80326L3.64386 13.2594C3.57637 13.3411 3.48818 13.3987 3.39082 13.4246C3.29337 13.4505 3.19113 13.4436 3.09725 13.4048C3.00337 13.366 2.92225 13.297 2.86435 13.2068C2.80637 13.1166 2.77421 13.0092 2.7721 12.8987V11.4559C1.9666 11.13 1.27 10.5415 0.774865 9.76839C0.279719 8.99523 0.00946878 8.07423 0 7.12769V4.79522C0 2.12621 1.39914 0.178473 4.3325 0.0149612C4.94707 -0.0187015 6.79958 0.0149612 6.79958 0.0149612C9.85931 -0.013899 11.52 1.93384 11.52 4.7135H11.5069ZM10.6613 4.92514C10.6352 2.33301 9.24473 0.947932 6.62953 0.947932C6.62953 0.947932 5.06044 0.947932 4.53738 0.947932C2.03546 1.08259 0.889172 2.74651 0.889172 4.95874V6.92573C0.862252 7.71869 1.06663 8.50027 1.47226 9.15561C1.87792 9.81095 2.46335 10.3054 3.14264 10.5662V12.9082C3.14159 12.9306 3.14703 12.9525 3.15807 12.9711C3.16904 12.9899 3.18512 13.0042 3.20396 13.0122C3.2228 13.0202 3.24342 13.0214 3.26291 13.0157C3.2824 13.01 3.29978 12.9977 3.31261 12.9805L4.26282 11.7685L5.04736 10.7682H6.88233C9.00501 10.7682 10.6439 9.32549 10.6439 7.23351L10.6613 4.92514Z" fill="#00CB18"/>
</svg>
